<svg xmlns="http://www.w3.org/2000/svg" viewBox="0 0 1024 1024"><path d="M512 928C282.24 928 96 741.76 96 512S282.24 96 512 96s416 186.24 416 416-186.24 416-416 416zm190.752-537.312c7.808-7.808 7.808-20.512 0-28.32l-42.496-42.464c-7.808-7.808-20.512-7.808-28.32 0L511.584 440.256 391.232 319.904c-7.808-7.808-20.512-7.808-28.32 0l-42.496 42.464c-7.808 7.808-7.808 20.512 0 28.32L440.8 511.072l-120.384 120.32c-7.808 7.808-7.808 20.512 0 28.32l42.496 42.496c7.808 7.808 20.512 7.808 28.32 0l120.352-120.384 120.352 120.384c7.808 7.808 20.512 7.808 28.32 0l42.496-42.496c7.808-7.808 7.808-20.512 0-28.32l-120.384-120.32 120.384-120.384z"/></svg>