<svg xmlns="http://www.w3.org/2000/svg" viewBox="0 0 50 37"><path d="M35.403 7.268c-1.877 2.188-3.01 4.416-3.393 6.692-.213 1.2-.32 2.228-.32 3.087 0 .986.107 1.801.32 2.443 2.005-2.1 4.546-3.15 7.619-3.15 3.072 0 5.569.9 7.49 2.7 1.92 1.8 2.881 4.29 2.881 7.463 0 3.003-1.013 5.445-3.043 7.334-2.027 1.885-4.597 2.83-7.714 2.83-4.266 0-7.383-1.546-9.347-4.633-.896-1.329-1.6-2.97-2.111-4.922a23.51 23.51 0 0 1-.768-6.013c0-4.504 1.153-8.622 3.456-12.352C32.778 5.017 36.214 2.1 40.78 0l1.216 2.38c-2.519 1.07-4.718 2.7-6.594 4.888m-27.017 0c-1.877 2.188-3.008 4.416-3.393 6.692-.213 1.2-.32 2.228-.32 3.087 0 .986.107 1.801.32 2.443 2.008-2.1 4.545-3.15 7.618-3.15 3.073 0 5.57.9 7.49 2.7 1.923 1.8 2.882 4.29 2.882 7.463 0 3.003-1.014 5.445-3.04 7.334-2.027 1.885-4.6 2.83-7.714 2.83-4.27 0-7.386-1.546-9.347-4.633-.896-1.329-1.6-2.97-2.114-4.922A23.63 23.63 0 0 1 0 21.1c0-4.504 1.153-8.622 3.458-12.352C5.761 5.017 9.197 2.1 13.764 0l1.216 2.38c-2.516 1.07-4.715 2.7-6.594 4.888" fill="#5FEC7D" fill-rule="evenodd"/></svg>