<svg xmlns="http://www.w3.org/2000/svg" viewBox="0 0 30 23"><path d="M21.206 4.422c-1.13 1.33-1.814 2.687-2.044 4.07-.128.73-.193 1.357-.193 1.88 0 .599.065 1.095.193 1.486C20.37 10.58 21.9 9.94 23.752 9.94c1.85 0 3.355.547 4.512 1.643C29.42 12.679 30 14.194 30 16.124c0 1.827-.61 3.313-1.833 4.462-1.221 1.147-2.77 1.722-4.647 1.722-2.57 0-4.448-.94-5.632-2.819-.54-.808-.964-1.807-1.272-2.994a14.436 14.436 0 0 1-.462-3.659c0-2.74.694-5.245 2.082-7.514 1.388-2.27 3.459-4.045 6.21-5.322l.732 1.448c-1.517.651-2.842 1.643-3.972 2.974m-16.154 0c-1.13 1.33-1.812 2.687-2.044 4.07-.128.73-.192 1.357-.192 1.88 0 .599.064 1.095.192 1.486 1.21-1.278 2.738-1.917 4.59-1.917 1.851 0 3.355.547 4.512 1.643 1.159 1.095 1.736 2.61 1.736 4.54 0 1.827-.61 3.313-1.831 4.462-1.221 1.147-2.772 1.722-4.648 1.722-2.572 0-4.45-.94-5.63-2.819-.54-.808-.965-1.807-1.275-2.994A14.51 14.51 0 0 1 0 12.836c0-2.74.694-5.245 2.083-7.514C3.471 3.052 5.541 1.277 8.293 0l.732 1.448c-1.516.651-2.84 1.643-3.973 2.974" fill="#005DA6" fill-rule="evenodd"/></svg>