<svg xmlns="http://www.w3.org/2000/svg" viewBox="0 0 16 16"><path d="M9.6 10.7v1.6c0 .4-.1.5-.3.5-.1 0-.2-.1-.4-.2v-2.4c.1-.1.2-.2.4-.2.2.2.3.4.3.7zm2.6 0v.4h-.7v-.4c0-.4.1-.5.4-.5s.3.2.3.5zM4.7 9h.8v-.7H3.1V9h.8v4.4h.8V9zm2.2 4.5h.7V9.6h-.7v3c-.2.2-.3.3-.4.3-.1 0-.1-.1-.2-.2V9.6h-.7v3.1c0 .3 0 .5.1.6.1.2.2.3.5.3.2 0 .5-.2.8-.5v.4zm3.4-1.2v-1.5c0-.4 0-.6-.1-.8-.1-.3-.3-.4-.6-.4s-.5.1-.7.4V8.3h-.7v5.2h.7v-.4c.2.3.5.4.7.4.3 0 .5-.1.6-.4.1-.2.1-.4.1-.8zm2.6-.1v-.1h-.7v.5c0 .2-.1.3-.3.3-.2 0-.4-.2-.4-.5v-.7h1.4v-.8c0-.4-.1-.7-.2-.9-.2-.3-.5-.4-.8-.4-.4 0-.6.1-.8.4-.1.2-.2.5-.2.9v1.4c0 .4.1.7.2.9.2.3.5.4.8.4s.7-.1.8-.4c.1-.1.1-.3.2-.4v-.6zM8.2 5.1V3.5c0-.4-.1-.5-.3-.5-.2 0-.3.2-.3.5v1.6c0 .4.1.5.3.5.2 0 .3-.1.3-.5zm5.6 5.9c0 .9 0 1.9-.2 2.7-.1.6-.6 1.1-1.2 1.1-1.5.2-3 .2-4.4.2s-2.9 0-4.3-.2c-.6-.1-1.1-.5-1.2-1.1-.2-.9-.2-1.8-.2-2.7 0-.9 0-1.9.2-2.7.1-.6.6-1.1 1.3-1.1 1.3-.3 2.8-.3 4.2-.3s2.9 0 4.3.2c.6.1 1.1.5 1.2 1.1.3.9.3 1.9.3 2.8zM6 1h.8l-1 3.1v2.1h-.7V4.1c-.1-.4-.3-.9-.5-1.6-.2-.5-.4-1-.5-1.5h.8l.6 2.1L6 1zm2.9 2.6V5c0 .4-.1.7-.2.9-.2.3-.5.4-.9.4-.3 0-.6-.1-.8-.4-.1-.2-.2-.5-.2-.9V3.6c0-.4.1-.7.2-.9.2-.3.5-.4.8-.4.4 0 .6.1.8.4.2.2.3.5.3.9zm2.6-1.3v3.9h-.7v-.4c-.3.3-.5.5-.8.5-.2 0-.4-.1-.5-.3 0-.1-.1-.3-.1-.6V2.3h.7v3.2c0 .1.1.2.2.2s.3-.1.4-.3v-3h.8z"/></svg>