<svg xmlns="http://www.w3.org/2000/svg" viewBox="0 0 384 448"><path d="M59.25 353.5H117V180H59.25v173.5zm61.5-227c-.25-17-12.5-30-32.25-30s-32.75 13-32.75 30c0 16.5 12.5 30 32 30H88c20.25 0 32.75-13.5 32.75-30zM267 353.5h57.75V254c0-53.25-28.5-78-66.5-78-31 0-44.75 17.25-52.25 29.25h.5V180h-57.75s.75 16.25 0 173.5h57.75v-97c0-5 .25-10.25 1.75-14 4.25-10.25 13.75-21 29.75-21 20.75 0 29 15.75 29 39.25v92.75zM384 104v240c0 39.75-32.25 72-72 72H72c-39.75 0-72-32.25-72-72V104c0-39.75 32.25-72 72-72h240c39.75 0 72 32.25 72 72z"/></svg>