<svg xmlns="http://www.w3.org/2000/svg" viewBox="0 0 450 448"><path d="M427.25 129.5c-1.75 39.5-29.5 93.75-83 162.75C288.75 364 242.25 400 203.75 400c-23.75 0-43.75-22-60-65.75-11-40-22-80.25-33-120.5-12-43.75-25.25-65.5-39.25-65.5-3 0-13.5 6.25-31.75 19l-19.25-24.5C40.5 125 60.25 107 80 89.75c26.5-23.5 46.75-35.25 60.25-36.5 31.75-3 51 18.5 58.5 64.75 7.75 50 13.5 81.25 16.5 93.25 9.25 41.5 19 62.25 30 62.25 8.5 0 21.25-13.25 38.5-40.25 17-27 26-47.5 27.25-61.5 2.25-23.25-6.75-34.75-27.25-34.75-9.75 0-19.75 2.25-30.25 6.5 20-65.5 58.25-97.25 114.75-95.5 41.75 1.25 61.5 28.5 59 81.5z"/></svg>