<svg xmlns="http://www.w3.org/2000/svg" viewBox="0 0 384 448"><path d="M256 224c0-35.25-28.75-64-64-64s-64 28.75-64 64 28.75 64 64 64 64-28.75 64-64zm34.5 0c0 54.5-44 98.5-98.5 98.5s-98.5-44-98.5-98.5 44-98.5 98.5-98.5 98.5 44 98.5 98.5zm27-102.5c0 12.75-10.25 23-23 23s-23-10.25-23-23 10.25-23 23-23 23 10.25 23 23zM192 66.5c-28 0-88-2.25-113.25 7.75-8.75 3.5-15.25 7.75-22 14.5s-11 13.25-14.5 22C32.25 136 34.5 196 34.5 224s-2.25 88 7.75 113.25c3.5 8.75 7.75 15.25 14.5 22s13.25 11 22 14.5C104 383.75 164 381.5 192 381.5s88 2.25 113.25-7.75c8.75-3.5 15.25-7.75 22-14.5s11-13.25 14.5-22C351.75 312 349.5 252 349.5 224s2.25-88-7.75-113.25c-3.5-8.75-7.75-15.25-14.5-22s-13.25-11-22-14.5C280 64.25 220 66.5 192 66.5zM384 224c0 26.5.25 52.75-1.25 79.25-1.5 30.75-8.5 58-31 80.5s-49.75 29.5-80.5 31c-26.5 1.5-52.75 1.25-79.25 1.25s-52.75.25-79.25-1.25c-30.75-1.5-58-8.5-80.5-31s-29.5-49.75-31-80.5C-.25 276.75 0 250.5 0 224s-.25-52.75 1.25-79.25c1.5-30.75 8.5-58 31-80.5s49.75-29.5 80.5-31C139.25 31.75 165.5 32 192 32s52.75-.25 79.25 1.25c30.75 1.5 58 8.5 80.5 31s29.5 49.75 31 80.5c1.5 26.5 1.25 52.75 1.25 79.25z"/></svg>