<svg xmlns="http://www.w3.org/2000/svg" viewBox="0 0 384 448"><path d="M320 152.5c-9.5 4.25-19.5 7-30.25 8.5 11-6.5 19.25-17 23.25-29.25-10.25 6-21.5 10.5-33.5 12.75-9.5-10.25-23.25-16.5-38.25-16.5-29 0-52.5 23.5-52.5 52.5 0 4 .25 8.25 1.25 12-43.75-2.25-82.5-23-108.5-55-4.5 7.75-7.25 17-7.25 26.5 0 18.25 8.5 34.25 22.75 43.75-8.75-.25-17-2.75-25-6.5v.5c0 25.5 19.25 46.75 43.25 51.5-4.5 1.25-8 2-12.75 2-3.25 0-6.5-.5-9.75-1 6.75 20.75 26 36 49 36.5-18 14-40.5 22.5-65.25 22.5-4.25 0-8.5-.25-12.5-.75 23.25 14.75 50.75 23.5 80.5 23.5C241 336 294 256 294 186.5c0-2.25 0-4.5-.25-6.75C304 172.5 313 163.25 320 152.5zm64-48.5v240c0 39.75-32.25 72-72 72H72c-39.75 0-72-32.25-72-72V104c0-39.75 32.25-72 72-72h240c39.75 0 72 32.25 72 72z"/></svg>