<svg xmlns="http://www.w3.org/2000/svg" viewBox="0 0 416 448"><path d="M405 102c-11 16-24.75 30.25-40.5 41.75.25 3.5.25 7 .25 10.5C364.75 261 283.5 384 135 384c-45.75 0-88.25-13.25-124-36.25 6.5.75 12.75 1 19.5 1 37.75 0 72.5-12.75 100.25-34.5-35.5-.75-65.25-24-75.5-56 5 .75 10 1.25 15.25 1.25 7.25 0 14.5-1 21.25-2.75-37-7.5-64.75-40-64.75-79.25v-1c10.75 6 23.25 9.75 36.5 10.25-21.75-14.5-36-39.25-36-67.25 0-15 4-28.75 11-40.75 39.75 49 99.5 81 166.5 84.5-1.25-6-2-12.25-2-18.5 0-44.5 36-80.75 80.75-80.75 23.25 0 44.25 9.75 59 25.5C361 86 378.5 79.25 394 70c-6 18.75-18.75 34.5-35.5 44.5 16.25-1.75 32-6.25 46.5-12.5z"/></svg>