<svg xmlns="http://www.w3.org/2000/svg" viewBox="0 0 384 448"><path d="M323 159.5c1.75-36.25-11.75-54.5-40.25-55.5-38.5-1.25-64.5 20.5-78 65.25 7-3 13.75-4.75 20.5-4.75 14 0 20.25 8 18.5 24-.75 9.5-7 23.5-18.5 41.75-11.75 18.5-20.5 27.5-26.25 27.5-7.5 0-14-14-20.5-42.25-2-8.5-5.75-29.5-11.25-63.75-5-31.5-18.25-46.25-40-44.25-9 1-23 9-41 25-13.5 11.75-26.75 24-40.5 36l13 16.75c12.5-8.5 19.75-13 21.75-13 9.5 0 18.5 15 26.75 44.75 7.5 27.5 15 54.75 22.5 82.25C141 329 154.5 344 170.75 344c26 0 58-24.5 95.75-73.5 36.5-47 55.5-84 56.5-111zm61-55.5v240c0 39.75-32.25 72-72 72H72c-39.75 0-72-32.25-72-72V104c0-39.75 32.25-72 72-72h240c39.75 0 72 32.25 72 72z"/></svg>