<svg xmlns="http://www.w3.org/2000/svg" viewBox="0 0 768 768"><path d="M379.5 288h4.5q39 0 67.5 28.5T480 384v6zm-138 25.5q-18 36-18 70.5 0 66 47.25 113.25T384 544.5q34.5 0 70.5-18L405 477q-12 3-21 3-39 0-67.5-28.5T288 384q0-9 3-21zm-177-177L105 96l567 567-40.5 40.5Q624 696 584.25 657t-60.75-60Q459 624 384 624q-118.5 0-214.5-66t-138-174q16.5-39 51.75-86.25T151.5 225q-18-18-50.25-51T64.5 136.5zm319.5 87q-30 0-58.5 12l-69-69Q315 144 384 144q118.5 0 213.75 66T735 384q-36 88.5-109.5 151.5l-93-93q12-28.5 12-58.5 0-66-47.25-113.25T384 223.5z"/></svg>