<?xml version="1.0" encoding="UTF-8"?>
<svg width="350px" height="285px" viewBox="0 0 350 285" version="1.1" xmlns="http://www.w3.org/2000/svg" xmlns:xlink="http://www.w3.org/1999/xlink">
    <!-- Generator: Sketch 53.2 (72643) - https://sketchapp.com -->
    <title>bg-pattern-blue-opacity</title>
    <desc>Created with Sketch.</desc>
    <g id="Desktop" stroke="none" stroke-width="1" fill="none" fill-rule="evenodd" opacity="0.1">
        <g id="Homepage-v1" transform="translate(-319.000000, -1713.000000)" fill="#004990">
            <g id="logo-pattern" transform="translate(319.000000, 1713.000000)">
                <g transform="translate(175.000000, 142.500000) scale(-1, 1) translate(-175.000000, -142.500000) ">
                    <path d="M142.337917,163.573685 C142.337917,153.824578 145.210488,145.942029 148.749823,145.942029 L181.996739,145.942029 C185.531507,145.942029 188.408644,153.824578 188.408644,163.573685 L188.408644,168.92174 C188.408644,178.666272 185.531507,186.557971 181.996739,186.557971 L148.749823,186.557971 C145.210488,186.557971 142.337917,178.666272 142.337917,168.92174 L142.337917,163.573685" id="Fill-1"></path>
                    <path d="M101.08055,260.612184 C101.08055,252.029172 103.574877,245.072464 106.634043,245.072464 L135.418216,245.072464 C138.468345,245.072464 140.962672,252.029172 140.962672,260.612184 L140.962672,265.316024 C140.962672,273.903643 138.468345,280.869565 135.418216,280.869565 L106.634043,280.869565 C103.574877,280.869565 101.08055,273.903643 101.08055,265.316024 L101.08055,260.612184" id="Fill-3"></path>
                    <path d="M46.0707269,147.602829 C46.0707269,139.846946 48.3368403,133.550725 51.1388282,133.550725 L77.4511748,133.550725 C80.2440801,133.550725 82.5147348,139.846946 82.5147348,147.602829 L82.5147348,151.853693 C82.5147348,159.609576 80.2440801,165.905797 77.4511748,165.905797 L51.1388282,165.905797 C48.3368403,165.905797 46.0707269,159.609576 46.0707269,151.853693 L46.0707269,147.602829" id="Fill-5"></path>
                    <path d="M193.909627,212.450319 C193.909627,202.718036 196.777914,194.818841 200.322168,194.818841 L233.563245,194.818841 C237.102931,194.818841 239.980354,202.718036 239.980354,212.450319 L239.980354,217.766734 C239.980354,227.531016 237.102931,235.434783 233.563245,235.434783 L200.322168,235.434783 C196.777914,235.434783 193.909627,227.531016 193.909627,217.766734 L193.909627,212.450319" id="Fill-7"></path>
                    <path d="M193.909627,262.026665 C193.909627,252.284142 196.777914,244.384058 200.322168,244.384058 L233.563245,244.384058 C237.102931,244.384058 239.980354,252.284142 239.980354,262.026665 L239.980354,267.352821 C239.980354,277.090772 237.102931,285 233.563245,285 L200.322168,285 C196.777914,285 193.909627,277.090772 193.909627,267.352821 L193.909627,262.026665" id="Fill-9"></path>
                    <path d="M0,188.518227 C0,180.591141 2.26927461,174.166667 5.06744391,174.166667 L31.3810844,174.166667 C34.1611718,174.166667 36.4440079,180.591141 36.4440079,188.518227 L36.4440079,192.853933 C36.4440079,200.781018 34.1611718,207.210145 31.3810844,207.210145 L5.06744391,207.210145 C2.26927461,207.210145 0,200.781018 0,192.853933 L0,188.518227" id="Fill-11"></path>
                    <path d="M248.91945,163.573685 C248.91945,153.824578 251.787169,145.942029 255.335286,145.942029 L288.574341,145.942029 C292.108759,145.942029 294.990177,153.824578 294.990177,163.573685 L294.990177,168.92174 C294.990177,178.666272 292.108759,186.557971 288.574341,186.557971 L255.335286,186.557971 C251.787169,186.557971 248.91945,178.666272 248.91945,168.92174 L248.91945,163.573685" id="Fill-13"></path>
                    <path d="M248.91945,212.450319 C248.91945,202.718036 251.787169,194.818841 255.335286,194.818841 L288.574341,194.818841 C292.108759,194.818841 294.990177,202.718036 294.990177,212.450319 L294.990177,217.766734 C294.990177,227.531016 292.108759,235.434783 288.574341,235.434783 L255.335286,235.434783 C251.787169,235.434783 248.91945,227.531016 248.91945,217.766734 L248.91945,212.450319" id="Fill-15"></path>
                    <path d="M248.91945,262.026665 C248.91945,252.284142 251.787169,244.384058 255.335286,244.384058 L288.574341,244.384058 C292.108759,244.384058 294.990177,252.284142 294.990177,262.026665 L294.990177,267.352821 C294.990177,277.090772 292.108759,285 288.574341,285 L255.335286,285 C251.787169,285 248.91945,277.090772 248.91945,267.352821 L248.91945,262.026665" id="Fill-17"></path>
                    <path d="M303.929273,163.573685 C303.929273,153.824578 306.791858,145.942029 310.330141,145.942029 L343.567173,145.942029 C347.114587,145.942029 350,153.824578 350,163.573685 L350,168.92174 C350,178.666272 347.114587,186.557971 343.567173,186.557971 L310.330141,186.557971 C306.791858,186.557971 303.929273,178.666272 303.929273,168.92174 L303.929273,163.573685" id="Fill-19"></path>
                    <path d="M303.929273,212.450319 C303.929273,202.718036 306.791858,194.818841 310.330141,194.818841 L343.567173,194.818841 C347.114587,194.818841 350,202.718036 350,212.450319 L350,217.766734 C350,227.531016 347.114587,235.434783 343.567173,235.434783 L310.330141,235.434783 C306.791858,235.434783 303.929273,227.531016 303.929273,217.766734 L303.929273,212.450319" id="Fill-21"></path>
                    <path d="M303.929273,262.026665 C303.929273,252.284142 306.791858,244.384058 310.330141,244.384058 L343.567173,244.384058 C347.114587,244.384058 350,252.284142 350,262.026665 L350,267.352821 C350,277.090772 347.114587,285 343.567173,285 L310.330141,285 C306.791858,285 303.929273,277.090772 303.929273,267.352821 L303.929273,262.026665" id="Fill-23"></path>
                    <path d="M142.337917,17.637434 C142.337917,7.89729024 145.210488,0 148.749823,0 L181.996739,0 C185.531507,0 188.408644,7.89729024 188.408644,17.637434 L188.408644,22.9739352 C188.408644,32.7186518 185.531507,40.615942 181.996739,40.615942 L148.749823,40.615942 C145.210488,40.615942 142.337917,32.7186518 142.337917,22.9739352 L142.337917,17.637434" id="Fill-25"></path>
                    <path d="M101.08055,114.659552 C101.08055,106.084458 103.574877,99.1304348 106.634043,99.1304348 L135.418216,99.1304348 C138.468345,99.1304348 140.962672,106.084458 140.962672,114.659552 L140.962672,119.366182 C140.962672,127.950486 138.468345,134.927536 135.418216,134.927536 L106.634043,134.927536 C103.574877,134.927536 101.08055,127.950486 101.08055,119.366182 L101.08055,114.659552" id="Fill-27"></path>
                    <path d="M99.7053045,60.1832461 C99.7053045,52.40466 101.978801,46.1231884 104.778695,46.1231884 L131.084998,46.1231884 C133.86674,46.1231884 136.149312,52.40466 136.149312,60.1832461 L136.149312,64.4456732 C136.149312,72.1876327 133.86674,78.4782609 131.084998,78.4782609 L104.778695,78.4782609 C101.978801,78.4782609 99.7053045,72.1876327 99.7053045,64.4456732 L99.7053045,60.1832461" id="Fill-29"></path>
                    <path d="M193.909627,67.2149813 C193.909627,57.4781263 196.777914,49.5652174 200.322168,49.5652174 L233.563245,49.5652174 C237.102931,49.5652174 239.980354,57.4781263 239.980354,67.2149813 L239.980354,72.5268242 C239.980354,82.2865357 237.102931,90.1811594 233.563245,90.1811594 L200.322168,90.1811594 C196.777914,90.1811594 193.909627,82.2865357 193.909627,72.5268242 L193.909627,67.2149813" id="Fill-31"></path>
                    <path d="M193.909627,116.100935 C193.909627,106.345795 196.777914,98.442029 200.322168,98.442029 L233.563245,98.442029 C237.102931,98.442029 239.980354,106.345795 239.980354,116.100935 L239.980354,121.408207 C239.980354,131.154205 237.102931,139.057971 233.563245,139.057971 L200.322168,139.057971 C196.777914,139.057971 193.909627,131.154205 193.909627,121.408207 L193.909627,116.100935" id="Fill-33"></path>
                    <path d="M0,57.0501152 C0,49.109254 2.26927461,42.6811594 5.06744391,42.6811594 L31.3810844,42.6811594 C34.1611718,42.6811594 36.4440079,49.109254 36.4440079,57.0501152 L36.4440079,61.3696459 C36.4440079,69.3011978 34.1611718,75.7246377 31.3810844,75.7246377 L5.06744391,75.7246377 C2.26927461,75.7246377 0,69.3011978 0,61.3696459 L0,57.0501152" id="Fill-35"></path>
                    <path d="M248.91945,17.637434 C248.91945,7.89729024 251.787169,0 255.335286,0 L288.574341,0 C292.108759,0 294.990177,7.89729024 294.990177,17.637434 L294.990177,22.9739352 C294.990177,32.7186518 292.108759,40.615942 288.574341,40.615942 L255.335286,40.615942 C251.787169,40.615942 248.91945,32.7186518 248.91945,22.9739352 L248.91945,17.637434" id="Fill-37"></path>
                    <path d="M248.91945,67.2149813 C248.91945,57.4781263 251.787169,49.5652174 255.335286,49.5652174 L288.574341,49.5652174 C292.108759,49.5652174 294.990177,57.4781263 294.990177,67.2149813 L294.990177,72.5268242 C294.990177,82.2865357 292.108759,90.1811594 288.574341,90.1811594 L255.335286,90.1811594 C251.787169,90.1811594 248.91945,82.2865357 248.91945,72.5268242 L248.91945,67.2149813" id="Fill-39"></path>
                    <path d="M248.91945,116.100935 C248.91945,106.345795 251.787169,98.442029 255.335286,98.442029 L288.574341,98.442029 C292.108759,98.442029 294.990177,106.345795 294.990177,116.100935 L294.990177,121.408207 C294.990177,131.154205 292.108759,139.057971 288.574341,139.057971 L255.335286,139.057971 C251.787169,139.057971 248.91945,131.154205 248.91945,121.408207 L248.91945,116.100935" id="Fill-41"></path>
                    <path d="M303.929273,17.637434 C303.929273,7.89729024 306.791858,0 310.330141,0 L343.567173,0 C347.114587,0 350,7.89729024 350,17.637434 L350,22.9739352 C350,32.7186518 347.114587,40.615942 343.567173,40.615942 L310.330141,40.615942 C306.791858,40.615942 303.929273,32.7186518 303.929273,22.9739352 L303.929273,17.637434" id="Fill-43"></path>
                    <path d="M303.929273,67.2149813 C303.929273,57.4781263 306.791858,49.5652174 310.330141,49.5652174 L343.567173,49.5652174 C347.114587,49.5652174 350,57.4781263 350,67.2149813 L350,72.5268242 C350,82.2865357 347.114587,90.1811594 343.567173,90.1811594 L310.330141,90.1811594 C306.791858,90.1811594 303.929273,82.2865357 303.929273,72.5268242 L303.929273,67.2149813" id="Fill-45"></path>
                    <path d="M303.929273,116.100935 C303.929273,106.345795 306.791858,98.442029 310.330141,98.442029 L343.567173,98.442029 C347.114587,98.442029 350,106.345795 350,116.100935 L350,121.408207 C350,131.154205 347.114587,139.057971 343.567173,139.057971 L310.330141,139.057971 C306.791858,139.057971 303.929273,131.154205 303.929273,121.408207 L303.929273,116.100935" id="Fill-47"></path>
                </g>
            </g>
        </g>
    </g>
</svg>