<?xml version="1.0" encoding="UTF-8"?>
<svg width="350px" height="285px" viewBox="0 0 350 285" version="1.1" xmlns="http://www.w3.org/2000/svg" xmlns:xlink="http://www.w3.org/1999/xlink">
    <!-- Generator: Sketch 53.2 (72643) - https://sketchapp.com -->
    <title>logo pattern copy 2</title>
    <desc>Created with Sketch.</desc>
    <g id="Desktop" stroke="none" stroke-width="1" fill="none" fill-rule="evenodd" opacity="0.1">
        <g id="Solutions-Page" transform="translate(-42.000000, -163.000000)" fill="#FFFFFF">
            <g id="logo-pattern" transform="translate(217.000000, 305.500000) scale(1, -1) rotate(-360.000000) translate(-217.000000, -305.500000) translate(42.000000, 163.000000)">
                <g id="logo-pattern-copy" transform="translate(175.000000, 142.500000) rotate(-180.000000) translate(-175.000000, -142.500000) ">
                    <path d="M142.408907,162.87827 C142.408907,153.178488 145.280349,145.335821 148.818294,145.335821 L182.052152,145.335821 C185.585532,145.335821 188.461538,153.178488 188.461538,162.87827 L188.461538,168.199268 C188.461538,177.894498 185.585532,185.746269 182.052152,185.746269 L148.818294,185.746269 C145.280349,185.746269 142.408907,177.894498 142.408907,168.199268 L142.408907,162.87827" id="Fill-1"></path>
                    <path d="M101.315789,260.285383 C101.315789,251.616147 103.841544,244.589552 106.939253,244.589552 L136.086092,244.589552 C139.174651,244.589552 141.700405,251.616147 141.700405,260.285383 L141.700405,265.036478 C141.700405,273.710367 139.174651,280.746269 136.086092,280.746269 L106.939253,280.746269 C103.841544,280.746269 101.315789,273.710367 101.315789,265.036478 L101.315789,260.285383" id="Fill-3"></path>
                    <path d="M46.7611336,147.848296 C46.7611336,140.200783 49.052001,133.992537 51.8845965,133.992537 L78.4843669,133.992537 C81.3077806,133.992537 83.6032389,140.200783 83.6032389,147.848296 L83.6032389,152.039764 C83.6032389,159.687276 81.3077806,165.895522 78.4843669,165.895522 L51.8845965,165.895522 C49.052001,165.895522 46.7611336,159.687276 46.7611336,152.039764 L46.7611336,147.848296" id="Fill-5"></path>
                    <path d="M194.129555,212.50496 C194.129555,202.821916 196.996716,194.962687 200.539577,194.962687 L233.767598,194.962687 C237.305894,194.962687 240.182186,202.821916 240.182186,212.50496 L240.182186,217.794476 C240.182186,227.509357 237.305894,235.373134 233.767598,235.373134 L200.539577,235.373134 C196.996716,235.373134 194.129555,227.509357 194.129555,217.794476 L194.129555,212.50496" id="Fill-7"></path>
                    <path d="M194.129555,262.142897 C194.129555,252.449666 196.996716,244.589552 200.539577,244.589552 L233.767598,244.589552 C237.305894,244.589552 240.182186,252.449666 240.182186,262.142897 L240.182186,267.442106 C240.182186,277.130789 237.305894,285 233.767598,285 L200.539577,285 C196.996716,285 194.129555,277.130789 194.129555,267.442106 L194.129555,262.142897" id="Fill-9"></path>
                    <path d="M0,188.875034 C0,180.881397 2.29406312,174.402985 5.12279831,174.402985 L31.7238768,174.402985 C34.5343326,174.402985 36.8421053,180.881397 36.8421053,188.875034 L36.8421053,193.247141 C36.8421053,201.240778 34.5343326,207.723881 31.7238768,207.723881 L5.12279831,207.723881 C2.29406312,207.723881 0,201.240778 0,193.247141 L0,188.875034" id="Fill-11"></path>
                    <path d="M248.684211,162.87827 C248.684211,153.178488 251.550803,145.335821 255.097527,145.335821 L288.323526,145.335821 C291.856556,145.335821 294.736842,153.178488 294.736842,162.87827 L294.736842,168.199268 C294.736842,177.894498 291.856556,185.746269 288.323526,185.746269 L255.097527,185.746269 C251.550803,185.746269 248.684211,177.894498 248.684211,168.199268 L248.684211,162.87827" id="Fill-13"></path>
                    <path d="M248.684211,212.50496 C248.684211,202.821916 251.550803,194.962687 255.097527,194.962687 L288.323526,194.962687 C291.856556,194.962687 294.736842,202.821916 294.736842,212.50496 L294.736842,217.794476 C294.736842,227.509357 291.856556,235.373134 288.323526,235.373134 L255.097527,235.373134 C251.550803,235.373134 248.684211,227.509357 248.684211,217.794476 L248.684211,212.50496" id="Fill-15"></path>
                    <path d="M248.684211,262.142897 C248.684211,252.449666 251.550803,244.589552 255.097527,244.589552 L288.323526,244.589552 C291.856556,244.589552 294.736842,252.449666 294.736842,262.142897 L294.736842,267.442106 C294.736842,277.130789 291.856556,285 288.323526,285 L255.097527,285 C251.550803,285 248.684211,277.130789 248.684211,267.442106 L248.684211,262.142897" id="Fill-17"></path>
                    <path d="M303.947368,162.87827 C303.947368,153.178488 306.808829,145.335821 310.345722,145.335821 L343.5697,145.335821 C347.115721,145.335821 350,153.178488 350,162.87827 L350,168.199268 C350,177.894498 347.115721,185.746269 343.5697,185.746269 L310.345722,185.746269 C306.808829,185.746269 303.947368,177.894498 303.947368,168.199268 L303.947368,162.87827" id="Fill-19"></path>
                    <path d="M303.947368,212.50496 C303.947368,202.821916 306.808829,194.962687 310.345722,194.962687 L343.5697,194.962687 C347.115721,194.962687 350,202.821916 350,212.50496 L350,217.794476 C350,227.509357 347.115721,235.373134 343.5697,235.373134 L310.345722,235.373134 C306.808829,235.373134 303.947368,227.509357 303.947368,217.794476 L303.947368,212.50496" id="Fill-21"></path>
                    <path d="M303.947368,262.142897 C303.947368,252.449666 306.808829,244.589552 310.345722,244.589552 L343.5697,244.589552 C347.115721,244.589552 350,252.449666 350,262.142897 L350,267.442106 C350,277.130789 347.115721,285 343.5697,285 L310.345722,285 C306.808829,285 303.947368,277.130789 303.947368,267.442106 L303.947368,262.142897" id="Fill-23"></path>
                    <path d="M142.408907,17.5481983 C142.408907,7.8573343 145.280349,1.13686838e-13 148.818294,1.13686838e-13 L182.052152,1.13686838e-13 C185.585532,1.13686838e-13 188.461538,7.8573343 188.461538,17.5481983 L188.461538,22.8576998 C188.461538,32.5531135 185.585532,40.4104478 182.052152,40.4104478 L148.818294,40.4104478 C145.280349,40.4104478 142.408907,32.5531135 142.408907,22.8576998 L142.408907,17.5481983" id="Fill-25"></path>
                    <path d="M101.315789,114.229897 C101.315789,105.568659 103.841544,98.5447761 106.939253,98.5447761 L136.086092,98.5447761 C139.174651,98.5447761 141.700405,105.568659 141.700405,114.229897 L141.700405,118.98381 C141.700405,127.654352 139.174651,134.701493 136.086092,134.701493 L106.939253,134.701493 C103.841544,134.701493 101.315789,127.654352 101.315789,118.98381 L101.315789,114.229897" id="Fill-27"></path>
                    <path d="M99.1902834,60.6546456 C99.1902834,52.9847473 101.488614,46.7910448 104.319093,46.7910448 L130.912754,46.7910448 C133.724883,46.7910448 136.032389,52.9847473 136.032389,60.6546456 L136.032389,64.8575152 C136.032389,72.4912986 133.724883,78.6940299 130.912754,78.6940299 L104.319093,78.6940299 C101.488614,78.6940299 99.1902834,72.4912986 99.1902834,64.8575152 L99.1902834,60.6546456" id="Fill-29"></path>
                    <path d="M194.129555,67.1873315 C194.129555,57.4997396 196.996716,49.6268657 200.539577,49.6268657 L233.767598,49.6268657 C237.305894,49.6268657 240.182186,57.4997396 240.182186,67.1873315 L240.182186,72.4722994 C240.182186,82.1826321 237.305894,90.0373134 233.767598,90.0373134 L200.539577,90.0373134 C196.996716,90.0373134 194.129555,82.1826321 194.129555,72.4722994 L194.129555,67.1873315" id="Fill-31"></path>
                    <path d="M194.129555,116.823293 C194.129555,107.117509 196.996716,99.2537313 200.539577,99.2537313 L233.767598,99.2537313 C237.305894,99.2537313 240.182186,107.117509 240.182186,116.823293 L240.182186,122.103713 C240.182186,131.800401 237.305894,139.664179 233.767598,139.664179 L200.539577,139.664179 C196.996716,139.664179 194.129555,131.800401 194.129555,122.103713 L194.129555,116.823293" id="Fill-33"></path>
                    <path d="M0,57.7358594 C0,49.7283305 2.29406312,43.2462687 5.12279831,43.2462687 L31.7238768,43.2462687 C34.5343326,43.2462687 36.8421053,49.7283305 36.8421053,57.7358594 L36.8421053,62.0916547 C36.8421053,70.0897961 34.5343326,76.5671642 31.7238768,76.5671642 L5.12279831,76.5671642 C2.29406312,76.5671642 0,70.0897961 0,62.0916547 L0,57.7358594" id="Fill-35"></path>
                    <path d="M248.684211,17.5481983 C248.684211,7.8573343 251.550803,1.13686838e-13 255.097527,1.13686838e-13 L288.323526,1.13686838e-13 C291.856556,1.13686838e-13 294.736842,7.8573343 294.736842,17.5481983 L294.736842,22.8576998 C294.736842,32.5531135 291.856556,40.4104478 288.323526,40.4104478 L255.097527,40.4104478 C251.550803,40.4104478 248.684211,32.5531135 248.684211,22.8576998 L248.684211,17.5481983" id="Fill-37"></path>
                    <path d="M248.684211,67.1873315 C248.684211,57.4997396 251.550803,49.6268657 255.097527,49.6268657 L288.323526,49.6268657 C291.856556,49.6268657 294.736842,57.4997396 294.736842,67.1873315 L294.736842,72.4722994 C294.736842,82.1826321 291.856556,90.0373134 288.323526,90.0373134 L255.097527,90.0373134 C251.550803,90.0373134 248.684211,82.1826321 248.684211,72.4722994 L248.684211,67.1873315" id="Fill-39"></path>
                    <path d="M248.684211,116.823293 C248.684211,107.117509 251.550803,99.2537313 255.097527,99.2537313 L288.323526,99.2537313 C291.856556,99.2537313 294.736842,107.117509 294.736842,116.823293 L294.736842,122.103713 C294.736842,131.800401 291.856556,139.664179 288.323526,139.664179 L255.097527,139.664179 C251.550803,139.664179 248.684211,131.800401 248.684211,122.103713 L248.684211,116.823293" id="Fill-41"></path>
                    <path d="M303.947368,17.5481983 C303.947368,7.8573343 306.808829,2.27373675e-13 310.345722,2.27373675e-13 L343.5697,2.27373675e-13 C347.115721,2.27373675e-13 350,7.8573343 350,17.5481983 L350,22.8576998 C350,32.5531135 347.115721,40.4104478 343.5697,40.4104478 L310.345722,40.4104478 C306.808829,40.4104478 303.947368,32.5531135 303.947368,22.8576998 L303.947368,17.5481983" id="Fill-43"></path>
                    <path d="M303.947368,67.1873315 C303.947368,57.4997396 306.808829,49.6268657 310.345722,49.6268657 L343.5697,49.6268657 C347.115721,49.6268657 350,57.4997396 350,67.1873315 L350,72.4722994 C350,82.1826321 347.115721,90.0373134 343.5697,90.0373134 L310.345722,90.0373134 C306.808829,90.0373134 303.947368,82.1826321 303.947368,72.4722994 L303.947368,67.1873315" id="Fill-45"></path>
                    <path d="M303.947368,116.823293 C303.947368,107.117509 306.808829,99.2537313 310.345722,99.2537313 L343.5697,99.2537313 C347.115721,99.2537313 350,107.117509 350,116.823293 L350,122.103713 C350,131.800401 347.115721,139.664179 343.5697,139.664179 L310.345722,139.664179 C306.808829,139.664179 303.947368,131.800401 303.947368,122.103713 L303.947368,116.823293" id="Fill-47"></path>
                </g>
            </g>
        </g>
    </g>
</svg>