<?xml version="1.0" encoding="UTF-8"?>
<svg width="300px" height="71px" viewBox="0 0 300 71" version="1.1" xmlns="http://www.w3.org/2000/svg" xmlns:xlink="http://www.w3.org/1999/xlink">
    <!-- Generator: Sketch 53.2 (72643) - https://sketchapp.com -->
    <title>Logo-color</title>
    <desc>Created with Sketch.</desc>
    <defs>
        <polygon id="path-1" points="0.1534 0.7312 8.6554 0.7312 8.6554 11 0.1534 11"></polygon>
        <polygon id="path-3" points="0 70.7969 300 70.7969 300 -0.0001 0 -0.0001"></polygon>
    </defs>
    <g id="Desktop" stroke="none" stroke-width="1" fill="none" fill-rule="evenodd">
        <g id="Solutions-Page" transform="translate(-47.000000, -38.000000)">
            <g id="Header">
                <g id="Logo-color" transform="translate(47.000000, 38.000000)">
                    <g>
                        <path d="M16.7822,66.8767 L15.1312,62.1777 L13.4662,66.8767 L16.7822,66.8767 Z M14.4532,60.8077 C14.5332,60.7677 14.6432,60.7357 14.7852,60.7117 C14.9272,60.6877 15.0572,60.6747 15.1752,60.6747 C15.6082,60.6747 15.8962,60.8757 16.0452,61.2787 L19.4492,70.5757 L18.1072,70.5757 L17.1202,67.9237 L13.1422,67.9237 L12.1842,70.5757 L10.8862,70.5757 L14.4532,60.8077 Z" id="Fill-1" fill="#004990"></path>
                        <path d="M26.7275,62.7087 C26.3935,62.3457 26.0405,62.0797 25.6735,61.9117 C25.3065,61.7457 24.8945,61.6617 24.4435,61.6617 C23.4595,61.6617 22.7095,62.0117 22.1895,62.7087 C21.6685,63.4057 21.4085,64.3937 21.4085,65.6707 C21.4085,66.9447 21.6785,67.9377 22.2185,68.6387 C22.7585,69.3407 23.5395,69.6917 24.5605,69.6917 C24.9945,69.6917 25.4125,69.5927 25.8225,69.3977 C26.2295,69.2007 26.5795,68.9307 26.8735,68.5857 C27.0125,68.6937 27.1345,68.8287 27.2435,68.9907 C27.3515,69.1537 27.4045,69.2847 27.4045,69.3827 C27.4045,69.5397 27.3355,69.6857 27.1995,69.8247 C26.9045,70.1197 26.5105,70.3547 26.0185,70.5307 C25.5275,70.7087 24.9985,70.7967 24.4295,70.7967 C23.0245,70.7967 21.9485,70.3497 21.2025,69.4557 C20.4565,68.5617 20.0815,67.3037 20.0815,65.6837 C20.0815,64.0627 20.4625,62.7997 21.2245,61.8897 C21.9865,60.9817 23.0595,60.5277 24.4435,60.5277 C24.9435,60.5277 25.4235,60.6037 25.8795,60.7567 C26.3355,60.9087 26.7015,61.0927 26.9705,61.3077 C27.2415,61.5237 27.3755,61.7297 27.3755,61.9277 C27.3755,62.1237 27.2475,62.3837 26.9935,62.7087 L26.7275,62.7087 Z" id="Fill-3" fill="#004990"></path>
                        <path d="M35.0654,62.7087 C34.7314,62.3457 34.3794,62.0797 34.0114,61.9117 C33.6444,61.7457 33.2334,61.6617 32.7814,61.6617 C31.7984,61.6617 31.0474,62.0117 30.5284,62.7087 C30.0074,63.4057 29.7474,64.3937 29.7474,65.6707 C29.7474,66.9447 30.0164,67.9377 30.5564,68.6387 C31.0964,69.3407 31.8774,69.6917 32.8984,69.6917 C33.3334,69.6917 33.7514,69.5927 34.1604,69.3977 C34.5674,69.2007 34.9184,68.9307 35.2114,68.5857 C35.3514,68.6937 35.4724,68.8287 35.5824,68.9907 C35.6904,69.1537 35.7434,69.2847 35.7434,69.3827 C35.7434,69.5397 35.6744,69.6857 35.5374,69.8247 C35.2434,70.1197 34.8484,70.3547 34.3574,70.5307 C33.8664,70.7087 33.3364,70.7967 32.7684,70.7967 C31.3624,70.7967 30.2874,70.3497 29.5414,69.4557 C28.7944,68.5617 28.4204,67.3037 28.4204,65.6837 C28.4204,64.0627 28.8014,62.7997 29.5624,61.8897 C30.3244,60.9817 31.3974,60.5277 32.7814,60.5277 C33.2814,60.5277 33.7614,60.6037 34.2174,60.7567 C34.6734,60.9087 35.0394,61.0927 35.3094,61.3077 C35.5794,61.5237 35.7144,61.7297 35.7144,61.9277 C35.7144,62.1237 35.5864,62.3837 35.3314,62.7087 L35.0654,62.7087 Z" id="Fill-5" fill="#004990"></path>
                        <path d="M37.4521,60.7185 L43.1391,60.7185 C43.1581,60.8185 43.1701,60.9195 43.1701,61.0285 C43.1701,61.5595 42.8681,61.8225 42.2701,61.8225 L38.7331,61.8225 L38.7331,64.8585 L42.0781,64.8585 L42.0781,65.9935 L38.7331,65.9935 L38.7331,69.4715 L42.4761,69.4715 C42.7711,69.4715 42.9971,69.5395 43.1541,69.6765 C43.3111,69.8145 43.3901,70.0115 43.3901,70.2655 C43.3901,70.3645 43.3851,70.4675 43.3751,70.5755 L37.4521,70.5755 L37.4521,60.7185 Z" id="Fill-7" fill="#004990"></path>
                        <path d="M44.9512,60.7029 C45.1082,60.6849 45.2322,60.6749 45.3212,60.6749 C45.9302,60.6749 46.2332,60.9839 46.2332,61.6019 L46.2332,69.4559 L49.6512,69.4559 C49.9362,69.4559 50.1552,69.5239 50.3082,69.6609 C50.4592,69.8009 50.5362,69.9909 50.5362,70.2369 C50.5362,70.3459 50.5322,70.4579 50.5202,70.5759 L44.9512,70.5759 L44.9512,60.7029 Z" id="Fill-9" fill="#004990"></path>
                        <path d="M52.0088,60.7185 L57.6958,60.7185 C57.7148,60.8185 57.7258,60.9195 57.7258,61.0285 C57.7258,61.5595 57.4248,61.8225 56.8268,61.8225 L53.2898,61.8225 L53.2898,64.8585 L56.6348,64.8585 L56.6348,65.9935 L53.2898,65.9935 L53.2898,69.4715 L57.0328,69.4715 C57.3268,69.4715 57.5538,69.5395 57.7098,69.6765 C57.8668,69.8145 57.9468,70.0115 57.9468,70.2655 C57.9468,70.3645 57.9408,70.4675 57.9318,70.5755 L52.0088,70.5755 L52.0088,60.7185 Z" id="Fill-11" fill="#004990"></path>
                        <path d="M61.8496,65.449 C63.4726,65.449 64.2826,64.801 64.2826,63.504 C64.2826,62.866 64.1006,62.405 63.7356,62.127 C63.3726,61.845 62.7476,61.706 61.8656,61.706 C61.4056,61.706 61.0506,61.725 60.8046,61.765 L60.8046,65.449 L61.8496,65.449 Z M59.5236,60.748 C60.1316,60.661 60.9026,60.617 61.8366,60.617 C63.1516,60.617 64.1126,60.841 64.7156,61.285 C65.3206,61.732 65.6216,62.447 65.6216,63.43 C65.6216,63.93 65.5316,64.38 65.3496,64.778 C65.1676,65.177 64.9126,65.505 64.5826,65.765 C64.2536,66.024 63.8796,66.204 63.4566,66.303 L66.1536,70.576 C65.9876,70.664 65.7546,70.709 65.4596,70.709 C65.0196,70.709 64.6696,70.515 64.4146,70.133 L62.1156,66.538 L60.8046,66.538 L60.8046,70.576 L59.5236,70.576 L59.5236,60.748 Z" id="Fill-13" fill="#004990"></path>
                        <path d="M72.7695,66.8767 L71.1185,62.1777 L69.4535,66.8767 L72.7695,66.8767 Z M70.4405,60.8077 C70.5205,60.7677 70.6305,60.7357 70.7725,60.7117 C70.9145,60.6877 71.0445,60.6747 71.1625,60.6747 C71.5955,60.6747 71.8835,60.8757 72.0325,61.2787 L75.4365,70.5757 L74.0945,70.5757 L73.1075,67.9237 L69.1295,67.9237 L68.1715,70.5757 L66.8745,70.5757 L70.4405,60.8077 Z" id="Fill-15" fill="#004990"></path>
                        <path d="M77.5723,61.8386 L74.4493,61.8386 C74.4213,61.7016 74.4053,61.5646 74.4053,61.4266 C74.4053,61.2186 74.4893,61.0506 74.6553,60.9176 C74.8233,60.7846 75.0383,60.7186 75.3033,60.7186 L82.0663,60.7186 C82.0863,60.8566 82.0963,60.9686 82.0963,61.0576 C82.0963,61.2936 82.0153,61.4826 81.8533,61.6236 C81.6923,61.7686 81.4723,61.8386 81.1983,61.8386 L78.8703,61.8386 L78.8703,70.5756 L77.5723,70.5756 L77.5723,61.8386 Z" id="Fill-17" fill="#004990"></path>
                        <path d="M83.3916,60.7185 L89.0786,60.7185 C89.0986,60.8185 89.1096,60.9195 89.1096,61.0285 C89.1096,61.5595 88.8086,61.8225 88.2106,61.8225 L84.6736,61.8225 L84.6736,64.8585 L88.0186,64.8585 L88.0186,65.9935 L84.6736,65.9935 L84.6736,69.4715 L88.4166,69.4715 C88.7106,69.4715 88.9366,69.5395 89.0936,69.6765 C89.2506,69.8145 89.3306,70.0115 89.3306,70.2655 C89.3306,70.3645 89.3246,70.4675 89.3156,70.5755 L83.3916,70.5755 L83.3916,60.7185 Z" id="Fill-19" fill="#004990"></path>
                        <path d="M96.3564,69.4841 C97.5254,69.4841 98.4134,69.1501 99.0174,68.4771 C99.6224,67.8041 99.9224,66.8281 99.9224,65.5501 C99.9224,64.2451 99.6324,63.2841 99.0524,62.6711 C98.4754,62.0571 97.5814,61.7501 96.3724,61.7501 C95.8914,61.7501 95.4774,61.7741 95.1344,61.8231 L95.1344,69.4841 L96.3564,69.4841 Z M93.8534,60.7621 C94.7274,60.6661 95.5574,60.6171 96.3434,60.6171 C97.9724,60.6171 99.1994,61.0241 100.0174,61.8381 C100.8384,62.6531 101.2494,63.8661 101.2494,65.4771 C101.2494,66.4211 101.0934,67.2551 100.7844,67.9831 C100.4764,68.7101 100.0204,69.2941 99.4224,69.7371 C98.6364,70.2961 97.5454,70.5761 96.1514,70.5761 L93.8534,70.5761 L93.8534,60.7621 Z" id="Fill-21" fill="#004990"></path>
                        <path d="M103.1631,60.7029 C103.3201,60.6849 103.4441,60.6749 103.5331,60.6749 C103.8271,60.6749 104.0561,60.7569 104.2171,60.9179 C104.3791,61.0799 104.4611,61.3069 104.4611,61.6019 L104.4611,70.5759 L103.1631,70.5759 L103.1631,60.7029 Z" id="Fill-23" fill="#004990"></path>
                        <path d="M111.3848,62.3103 C111.1298,62.1133 110.8238,61.9563 110.4708,61.8383 C110.1178,61.7213 109.7598,61.6623 109.3968,61.6623 C108.8058,61.6623 108.3548,61.7913 108.0398,62.0533 C107.7258,62.3123 107.5688,62.6733 107.5688,63.1353 C107.5688,63.4013 107.6308,63.6333 107.7518,63.8353 C107.8758,64.0373 108.0798,64.2183 108.3648,64.3793 C108.6488,64.5413 109.1068,64.7203 109.7358,64.9173 C110.6278,65.2033 111.2828,65.5803 111.6948,66.0443 C112.1068,66.5113 112.3128,67.0933 112.3128,67.7903 C112.3128,68.7253 112.0158,69.4573 111.4218,69.9933 C110.8268,70.5293 110.0148,70.7963 108.9828,70.7963 C108.4428,70.7963 107.9408,70.7373 107.4738,70.6203 C107.0058,70.5023 106.6408,70.3453 106.3748,70.1483 C106.1298,69.9913 106.0078,69.8093 106.0078,69.6043 C106.0078,69.5043 106.0498,69.3753 106.1318,69.2113 C106.2158,69.0503 106.3228,68.8863 106.4478,68.7183 C106.8228,69.0243 107.2278,69.2583 107.6658,69.4263 C108.1018,69.5923 108.5418,69.6763 108.9828,69.6763 C109.6318,69.6763 110.1268,69.5263 110.4708,69.2273 C110.8158,68.9283 110.9868,68.5123 110.9868,67.9833 C110.9868,67.6583 110.9288,67.3793 110.8118,67.1423 C110.6918,66.9083 110.5008,66.7043 110.2358,66.5313 C109.9698,66.3593 109.5718,66.1903 109.0428,66.0223 C108.3058,65.8073 107.7478,65.5803 107.3688,65.3383 C106.9928,65.0973 106.7098,64.8043 106.5238,64.4613 C106.3358,64.1163 106.2418,63.7083 106.2418,63.2383 C106.2418,62.6683 106.3748,62.1813 106.6408,61.7793 C106.9058,61.3753 107.2768,61.0683 107.7518,60.8513 C108.2308,60.6343 108.7778,60.5283 109.3968,60.5283 C109.7888,60.5283 110.1918,60.5773 110.6038,60.6743 C111.0178,60.7743 111.3608,60.9053 111.6348,61.0733 C111.8318,61.1903 111.9738,61.3053 112.0618,61.4173 C112.1508,61.5313 112.1948,61.6533 112.1948,61.7793 C112.1948,61.9873 112.0328,62.2503 111.7098,62.5763 C111.6698,62.5363 111.6238,62.4943 111.5688,62.4503 C111.5158,62.4053 111.4528,62.3593 111.3848,62.3103" id="Fill-25" fill="#004990"></path>
                        <path d="M120.4599,62.7087 C120.1259,62.3457 119.7739,62.0797 119.4059,61.9117 C119.0389,61.7457 118.6269,61.6617 118.1759,61.6617 C117.1929,61.6617 116.4419,62.0117 115.9229,62.7087 C115.4019,63.4057 115.1409,64.3937 115.1409,65.6707 C115.1409,66.9447 115.4109,67.9377 115.9509,68.6387 C116.4909,69.3407 117.2719,69.6917 118.2929,69.6917 C118.7269,69.6917 119.1459,69.5927 119.5549,69.3977 C119.9619,69.2007 120.3119,68.9307 120.6059,68.5857 C120.7459,68.6937 120.8669,68.8287 120.9759,68.9907 C121.0839,69.1537 121.1379,69.2847 121.1379,69.3827 C121.1379,69.5397 121.0689,69.6857 120.9319,69.8247 C120.6379,70.1197 120.2429,70.3547 119.7519,70.5307 C119.2609,70.7087 118.7309,70.7967 118.1619,70.7967 C116.7569,70.7967 115.6809,70.3497 114.9359,69.4557 C114.1889,68.5617 113.8149,67.3037 113.8149,65.6837 C113.8149,64.0627 114.1949,62.7997 114.9569,61.8897 C115.7189,60.9817 116.7919,60.5277 118.1759,60.5277 C118.6759,60.5277 119.1559,60.6037 119.6119,60.7567 C120.0679,60.9087 120.4339,61.0927 120.7039,61.3077 C120.9739,61.5237 121.1079,61.7297 121.1079,61.9277 C121.1079,62.1237 120.9809,62.3837 120.7259,62.7087 L120.4599,62.7087 Z" id="Fill-27" fill="#004990"></path>
                        <g id="Group-31" transform="translate(122.000000, 59.796900)">
                            <mask id="mask-2" fill="white">
                                <use xlink:href="#path-1"></use>
                            </mask>
                            <g id="Clip-30"></g>
                            <path d="M7.3144,5.8132 C7.3144,4.5372 7.0714,3.5602 6.5844,2.8802 C6.0984,2.2042 5.3884,1.8652 4.4574,1.8652 C3.4944,1.8652 2.7604,2.2012 2.2604,2.8742 C1.7604,3.5462 1.5074,4.5282 1.5074,5.8132 C1.5074,7.1112 1.7554,8.1092 2.2524,8.8112 C2.7504,9.5142 3.4694,9.8642 4.4124,9.8642 C5.3554,9.8642 6.0754,9.5122 6.5704,8.8042 C7.0664,8.0982 7.3144,7.0992 7.3144,5.8132 M8.6554,5.7982 C8.6554,7.4102 8.2814,8.6802 7.5364,9.6082 C6.7874,10.5352 5.7274,11.0002 4.3524,11.0002 C3.4494,11.0002 2.6854,10.7922 2.0614,10.3742 C1.4374,9.9552 0.9634,9.3552 0.6404,8.5692 C0.3154,7.7842 0.1534,6.8652 0.1534,5.8132 C0.1534,4.7822 0.3314,3.8782 0.6844,3.1022 C1.0374,2.3272 1.5394,1.7392 2.1874,1.3352 C2.8344,0.9322 3.6024,0.7312 4.4854,0.7312 C5.3794,0.7312 6.1344,0.9352 6.7534,1.3422 C7.3724,1.7502 7.8434,2.3342 8.1684,3.0952 C8.4924,3.8572 8.6554,4.7572 8.6554,5.7982" id="Fill-29" fill="#004990" mask="url(#mask-2)"></path>
                        </g>
                        <path d="M131.3174,60.7478 C131.4634,60.6988 131.6894,60.6748 131.9954,60.6748 C132.4864,60.6748 132.8164,60.9488 132.9824,61.4998 L135.4574,69.2938 L138.0644,61.4998 C138.2414,60.9488 138.5804,60.6748 139.0834,60.6748 C139.2404,60.6748 139.4254,60.6988 139.6424,60.7478 L136.1054,70.6478 L134.7634,70.6478 L131.3174,60.7478 Z" id="Fill-32" fill="#004990"></path>
                        <path d="M140.9219,60.7185 L146.6089,60.7185 C146.6289,60.8185 146.6399,60.9195 146.6399,61.0285 C146.6399,61.5595 146.3389,61.8225 145.7409,61.8225 L142.2039,61.8225 L142.2039,64.8585 L145.5489,64.8585 L145.5489,65.9935 L142.2039,65.9935 L142.2039,69.4715 L145.9469,69.4715 C146.2409,69.4715 146.4669,69.5395 146.6239,69.6765 C146.7809,69.8145 146.8609,70.0115 146.8609,70.2655 C146.8609,70.3645 146.8549,70.4675 146.8459,70.5755 L140.9219,70.5755 L140.9219,60.7185 Z" id="Fill-34" fill="#004990"></path>
                        <path d="M150.7637,65.449 C152.3857,65.449 153.1967,64.801 153.1967,63.504 C153.1967,62.866 153.0147,62.405 152.6497,62.127 C152.2857,61.845 151.6617,61.706 150.7797,61.706 C150.3187,61.706 149.9647,61.725 149.7187,61.765 L149.7187,65.449 L150.7637,65.449 Z M148.4377,60.748 C149.0457,60.661 149.8167,60.617 150.7497,60.617 C152.0657,60.617 153.0267,60.841 153.6297,61.285 C154.2347,61.732 154.5347,62.447 154.5347,63.43 C154.5347,63.93 154.4447,64.38 154.2637,64.778 C154.0817,65.177 153.8267,65.505 153.4967,65.765 C153.1677,66.024 152.7937,66.204 152.3707,66.303 L155.0667,70.576 C154.9007,70.664 154.6677,70.709 154.3737,70.709 C153.9337,70.709 153.5837,70.515 153.3287,70.133 L151.0297,66.538 L149.7187,66.538 L149.7187,70.576 L148.4377,70.576 L148.4377,60.748 Z" id="Fill-36" fill="#004990"></path>
                        <path d="M158.3076,66.5251 L155.1396,60.8231 C155.3266,60.7141 155.5826,60.6611 155.9056,60.6611 C156.1316,60.6611 156.3136,60.7081 156.4506,60.8001 C156.5876,60.8931 156.7156,61.0481 156.8326,61.2631 L158.9716,65.3161 L161.1076,61.3821 C161.2456,61.1371 161.3906,60.9581 161.5476,60.8441 C161.7046,60.7321 161.8866,60.6741 162.0946,60.6741 C162.2806,60.6741 162.5066,60.7141 162.7726,60.7921 L159.6046,66.4941 L159.6046,70.5761 L158.3076,70.5761 L158.3076,66.5251 Z" id="Fill-38" fill="#004990"></path>
                        <path d="M22.3838,26.4626 C22.3838,24.9436 22.8328,23.7156 23.3848,23.7156 L28.5718,23.7156 C29.1238,23.7156 29.5728,24.9436 29.5728,26.4626 L29.5728,27.2956 C29.5728,28.8136 29.1238,30.0426 28.5718,30.0426 L23.3848,30.0426 C22.8328,30.0426 22.3838,28.8136 22.3838,27.2956 L22.3838,26.4626" id="Fill-40" fill="#80A4C8"></path>
                        <path d="M15.7676,41.5447 C15.7676,40.2167 16.1616,39.1407 16.6426,39.1407 L21.1826,39.1407 C21.6636,39.1407 22.0576,40.2167 22.0576,41.5447 L22.0576,42.2717 C22.0576,43.6007 21.6636,44.6787 21.1826,44.6787 L16.6426,44.6787 C16.1616,44.6787 15.7676,43.6007 15.7676,42.2717 L15.7676,41.5447" id="Fill-42" fill="#80A4C8"></path>
                        <path d="M7.2324,23.905 C7.2324,22.697 7.5874,21.717 8.0274,21.717 L12.1564,21.717 C12.5944,21.717 12.9514,22.697 12.9514,23.905 L12.9514,24.567 C12.9514,25.775 12.5944,26.756 12.1564,26.756 L8.0274,26.756 C7.5874,26.756 7.2324,25.775 7.2324,24.567 L7.2324,23.905" id="Fill-44" fill="#B3C8DE"></path>
                        <path d="M30.4931,34.1316 C30.4931,32.6146 30.9401,31.3836 31.4941,31.3836 L36.6801,31.3836 C37.2321,31.3836 37.6811,32.6146 37.6811,34.1316 L37.6811,34.9606 C37.6811,36.4836 37.2321,37.7156 36.6801,37.7156 L31.4941,37.7156 C30.9401,37.7156 30.4931,36.4836 30.4931,34.9606 L30.4931,34.1316" id="Fill-46" fill="#6692BD"></path>
                        <path d="M30.4931,41.8025 C30.4931,40.2835 30.9401,39.0525 31.4941,39.0525 L36.6801,39.0525 C37.2321,39.0525 37.6811,40.2835 37.6811,41.8025 L37.6811,42.6325 C37.6811,44.1505 37.2321,45.3835 36.6801,45.3835 L31.4941,45.3835 C30.9401,45.3835 30.4931,44.1505 30.4931,42.6325 L30.4931,41.8025" id="Fill-48" fill="#99B6D3"></path>
                        <path d="M0,30.32 C0,29.105 0.358,28.121 0.799,28.121 L4.947,28.121 C5.385,28.121 5.745,29.105 5.745,30.32 L5.745,30.983 C5.745,32.198 5.385,33.182 4.947,33.182 L0.799,33.182 C0.358,33.182 0,32.198 0,30.983 L0,30.32" id="Fill-50" fill="#B3C8DE"></path>
                        <path d="M39.0556,26.4626 C39.0556,24.9436 39.5036,23.7156 40.0576,23.7156 L45.2436,23.7156 C45.7956,23.7156 46.2456,24.9436 46.2456,26.4626 L46.2456,27.2956 C46.2456,28.8136 45.7956,30.0426 45.2436,30.0426 L40.0576,30.0426 C39.5036,30.0426 39.0556,28.8136 39.0556,27.2956 L39.0556,26.4626" id="Fill-52" fill="#99B6D3"></path>
                        <path d="M39.0556,34.1316 C39.0556,32.6146 39.5036,31.3836 40.0576,31.3836 L45.2436,31.3836 C45.7956,31.3836 46.2456,32.6146 46.2456,34.1316 L46.2456,34.9606 C46.2456,36.4836 45.7956,37.7156 45.2436,37.7156 L40.0576,37.7156 C39.5036,37.7156 39.0556,36.4836 39.0556,34.9606 L39.0556,34.1316" id="Fill-54" fill="#336EA7"></path>
                        <path d="M39.0556,41.8025 C39.0556,40.2835 39.5036,39.0525 40.0576,39.0525 L45.2436,39.0525 C45.7956,39.0525 46.2456,40.2835 46.2456,41.8025 L46.2456,42.6325 C46.2456,44.1505 45.7956,45.3835 45.2436,45.3835 L40.0576,45.3835 C39.5036,45.3835 39.0556,44.1505 39.0556,42.6325 L39.0556,41.8025" id="Fill-56" fill="#336EA7"></path>
                        <path d="M47.6211,26.4626 C47.6211,24.9436 48.0671,23.7156 48.6201,23.7156 L53.8081,23.7156 C54.3621,23.7156 54.8121,24.9436 54.8121,26.4626 L54.8121,27.2956 C54.8121,28.8136 54.3621,30.0426 53.8081,30.0426 L48.6201,30.0426 C48.0671,30.0426 47.6211,28.8136 47.6211,27.2956 L47.6211,26.4626" id="Fill-58" fill="#004990"></path>
                        <path d="M47.6211,34.1316 C47.6211,32.6146 48.0671,31.3836 48.6201,31.3836 L53.8081,31.3836 C54.3621,31.3836 54.8121,32.6146 54.8121,34.1316 L54.8121,34.9606 C54.8121,36.4836 54.3621,37.7156 53.8081,37.7156 L48.6201,37.7156 C48.0671,37.7156 47.6211,36.4836 47.6211,34.9606 L47.6211,34.1316" id="Fill-60" fill="#004990"></path>
                        <path d="M47.6211,41.8025 C47.6211,40.2835 48.0671,39.0525 48.6201,39.0525 L53.8081,39.0525 C54.3621,39.0525 54.8121,40.2835 54.8121,41.8025 L54.8121,42.6325 C54.8121,44.1505 54.3621,45.3835 53.8081,45.3835 L48.6201,45.3835 C48.0671,45.3835 47.6211,44.1505 47.6211,42.6325 L47.6211,41.8025" id="Fill-62" fill="#004990"></path>
                        <path d="M22.3838,3.6042 C22.3838,2.0862 22.8328,0.8552 23.3848,0.8552 L28.5718,0.8552 C29.1238,0.8552 29.5728,2.0862 29.5728,3.6042 L29.5728,4.4362 C29.5728,5.9552 29.1238,7.1862 28.5718,7.1862 L23.3848,7.1862 C22.8328,7.1862 22.3838,5.9552 22.3838,4.4362 L22.3838,3.6042" id="Fill-64" fill="#80A4C8"></path>
                        <path d="M15.7676,18.6863 C15.7676,17.3593 16.1616,16.2833 16.6426,16.2833 L21.1826,16.2833 C21.6636,16.2833 22.0576,17.3593 22.0576,18.6863 L22.0576,19.4153 C22.0576,20.7433 21.6636,21.8233 21.1826,21.8233 L16.6426,21.8233 C16.1616,21.8233 15.7676,20.7433 15.7676,19.4153 L15.7676,18.6863" id="Fill-66" fill="#80A4C8"></path>
                        <path d="M15.584,10.2741 C15.584,9.0641 15.94,8.0861 16.38,8.0861 L20.512,8.0861 C20.948,8.0861 21.307,9.0641 21.307,10.2741 L21.307,10.9371 C21.307,12.1431 20.948,13.1231 20.512,13.1231 L16.38,13.1231 C15.94,13.1231 15.584,12.1431 15.584,10.9371 L15.584,10.2741" id="Fill-68" fill="#B3C8DE"></path>
                        <path d="M30.4931,11.2751 C30.4931,9.7571 30.9401,8.5231 31.4941,8.5231 L36.6801,8.5231 C37.2321,8.5231 37.6811,9.7571 37.6811,11.2751 L37.6811,12.1031 C37.6811,13.6251 37.2321,14.8561 36.6801,14.8561 L31.4941,14.8561 C30.9401,14.8561 30.4931,13.6251 30.4931,12.1031 L30.4931,11.2751" id="Fill-70" fill="#6692BD"></path>
                        <path d="M30.4931,18.947 C30.4931,17.426 30.9401,16.193 31.4941,16.193 L36.6801,16.193 C37.2321,16.193 37.6811,17.426 37.6811,18.947 L37.6811,19.774 C37.6811,21.293 37.2321,22.525 36.6801,22.525 L31.4941,22.525 C30.9401,22.525 30.4931,21.293 30.4931,19.774 L30.4931,18.947" id="Fill-72" fill="#99B6D3"></path>
                        <path d="M0,9.782 C0,8.566 0.358,7.582 0.799,7.582 L4.947,7.582 C5.385,7.582 5.745,8.566 5.745,9.782 L5.745,10.443 C5.745,11.658 5.385,12.64 4.947,12.64 L0.799,12.64 C0.358,12.64 0,11.658 0,10.443 L0,9.782" id="Fill-74" fill="#B3C8DE"></path>
                        <path d="M39.0556,3.6042 C39.0556,2.0862 39.5036,0.8552 40.0576,0.8552 L45.2436,0.8552 C45.7956,0.8552 46.2456,2.0862 46.2456,3.6042 L46.2456,4.4362 C46.2456,5.9552 45.7956,7.1862 45.2436,7.1862 L40.0576,7.1862 C39.5036,7.1862 39.0556,5.9552 39.0556,4.4362 L39.0556,3.6042" id="Fill-76" fill="#80A4C8"></path>
                        <path d="M39.0556,11.2751 C39.0556,9.7571 39.5036,8.5231 40.0576,8.5231 L45.2436,8.5231 C45.7956,8.5231 46.2456,9.7571 46.2456,11.2751 L46.2456,12.1031 C46.2456,13.6251 45.7956,14.8561 45.2436,14.8561 L40.0576,14.8561 C39.5036,14.8561 39.0556,13.6251 39.0556,12.1031 L39.0556,11.2751" id="Fill-78" fill="#336EA7"></path>
                        <path d="M39.0556,18.947 C39.0556,17.426 39.5036,16.193 40.0576,16.193 L45.2436,16.193 C45.7956,16.193 46.2456,17.426 46.2456,18.947 L46.2456,19.774 C46.2456,21.293 45.7956,22.525 45.2436,22.525 L40.0576,22.525 C39.5036,22.525 39.0556,21.293 39.0556,19.774 L39.0556,18.947" id="Fill-80" fill="#336EA7"></path>
                        <path d="M47.6211,3.6042 C47.6211,2.0862 48.0671,0.8552 48.6201,0.8552 L53.8081,0.8552 C54.3621,0.8552 54.8121,2.0862 54.8121,3.6042 L54.8121,4.4362 C54.8121,5.9552 54.3621,7.1862 53.8081,7.1862 L48.6201,7.1862 C48.0671,7.1862 47.6211,5.9552 47.6211,4.4362 L47.6211,3.6042" id="Fill-82" fill="#004990"></path>
                        <path d="M47.6211,11.2751 C47.6211,9.7571 48.0671,8.5231 48.6201,8.5231 L53.8081,8.5231 C54.3621,8.5231 54.8121,9.7571 54.8121,11.2751 L54.8121,12.1031 C54.8121,13.6251 54.3621,14.8561 53.8081,14.8561 L48.6201,14.8561 C48.0671,14.8561 47.6211,13.6251 47.6211,12.1031 L47.6211,11.2751" id="Fill-84" fill="#004990"></path>
                        <path d="M47.6211,18.947 C47.6211,17.426 48.0671,16.193 48.6201,16.193 L53.8081,16.193 C54.3621,16.193 54.8121,17.426 54.8121,18.947 L54.8121,19.774 C54.8121,21.293 54.3621,22.525 53.8081,22.525 L48.6201,22.525 C48.0671,22.525 47.6211,21.293 47.6211,19.774 L47.6211,18.947" id="Fill-86" fill="#8DC63F"></path>
                        <polygon id="Fill-88" fill="#004990" points="60.8721 0.9841 68.9661 0.9841 68.9661 18.7921 74.0711 18.7921 74.0711 0.9841 82.1661 0.9841 82.1661 45.3151 74.0711 45.3151 74.0711 26.5111 68.9661 26.5111 68.9661 45.3151 60.8721 45.3151"></polygon>
                        <path d="M93,38.4665 C98.105,38.4045 98.354,36.5365 98.354,23.0875 C98.354,9.7005 98.105,7.8955 93,7.8335 L93,38.4665 Z M84.905,0.9845 L91.941,0.9845 C105.515,0.9845 106.822,9.7005 106.822,23.1495 C106.822,35.9765 105.764,45.3155 93.249,45.3155 L84.905,45.3155 L84.905,0.9845 Z" id="Fill-90" fill="#004990"></path>
                        <polygon id="Fill-92" fill="#004990" points="109.748 0.9841 120.519 0.9841 124.132 23.7101 124.256 23.7101 128.054 0.9841 138.576 0.9841 138.576 45.3151 131.353 45.3151 131.353 12.8141 131.229 12.8141 125.75 45.3151 121.268 45.3151 115.851 12.8141 115.726 12.8141 115.726 45.3151 109.748 45.3151"></polygon>
                        <path d="M147.791,32.489 C147.791,34.979 147.791,39.339 151.278,39.339 C153.955,39.339 154.89,36.847 154.89,35.043 C154.89,27.135 140.195,25.329 140.195,12.191 C140.195,5.529 143.806,0.112 150.655,0.112 C157.94,0.112 160.742,5.654 160.929,13.624 L153.706,13.624 C153.706,11.134 153.706,6.962 150.469,6.962 C148.538,6.962 147.418,8.581 147.418,11.009 C147.418,18.543 162.111,21.095 162.111,33.984 C162.111,40.77 158.251,46.187 150.967,46.187 C142.312,46.187 140.568,38.591 140.568,32.489 L147.791,32.489 Z" id="Fill-94" fill="#004990"></path>
                        <polygon id="Fill-96" fill="#8CC63E" points="178.1582 0.6677 178.1582 5.4667 182.8092 5.4667 182.8092 0.6677 185.6262 0.6677 185.6262 13.1557 182.8092 13.1557 182.8092 7.9307 178.1582 7.9307 178.1582 13.1557 175.3232 13.1557 175.3232 0.6677"></polygon>
                        <path d="M193.4814,7.5974 C193.4814,6.9114 193.1844,5.7624 191.8874,5.7624 C190.7014,5.7624 190.2194,6.8374 190.1464,7.5974 L193.4814,7.5974 Z M190.1644,9.5244 C190.2564,10.6914 191.4064,11.2464 192.7214,11.2464 C193.6854,11.2464 194.4624,11.1184 195.2224,10.8764 L195.5934,12.7844 C194.6674,13.1564 193.5374,13.3404 192.3144,13.3404 C189.2384,13.3404 187.4784,11.5624 187.4784,8.7274 C187.4784,6.4294 188.9054,3.8914 192.0544,3.8914 C194.9824,3.8914 196.0934,6.1704 196.0934,8.4124 C196.0934,8.8944 196.0384,9.3204 196.0014,9.5244 L190.1644,9.5244 Z" id="Fill-98" fill="#8CC63E"></path>
                        <path d="M202.5967,8.8757 C201.1147,8.8567 199.9657,9.2097 199.9657,10.3027 C199.9657,11.0247 200.4477,11.3767 201.0767,11.3767 C201.7817,11.3767 202.3567,10.9137 202.5407,10.3397 C202.5777,10.1907 202.5967,10.0237 202.5967,9.8577 L202.5967,8.8757 Z M202.9307,13.1557 L202.7637,12.2477 L202.7077,12.2477 C202.1157,12.9707 201.1887,13.3597 200.1147,13.3597 C198.2797,13.3597 197.1867,12.0247 197.1867,10.5797 C197.1867,8.2277 199.2987,7.0967 202.5037,7.1147 L202.5037,6.9857 C202.5037,6.5037 202.2447,5.8177 200.8557,5.8177 C199.9287,5.8177 198.9467,6.1337 198.3537,6.5037 L197.8347,4.6887 C198.4647,4.3357 199.7057,3.8917 201.3557,3.8917 C204.3757,3.8917 205.3387,5.6697 205.3387,7.8007 L205.3387,10.9507 C205.3387,11.8217 205.3757,12.6547 205.4687,13.1557 L202.9307,13.1557 Z" id="Fill-100" fill="#8CC63E"></path>
                        <mask id="mask-4" fill="white">
                            <use xlink:href="#path-3"></use>
                        </mask>
                        <g id="Clip-103"></g>
                        <polygon id="Fill-102" fill="#8CC63E" mask="url(#mask-4)" points="207.562 13.1559 210.378 13.1559 210.378 -0.0001 207.562 -0.0001"></polygon>
                        <path d="M215.8066,1.5007 L215.8066,4.0957 L217.8276,4.0957 L217.8276,6.1707 L215.8066,6.1707 L215.8066,9.4497 C215.8066,10.5437 216.0666,11.0437 216.9186,11.0437 C217.2716,11.0437 217.5486,11.0067 217.7526,10.9697 L217.7716,13.1007 C217.4006,13.2487 216.7346,13.3407 215.9376,13.3407 C215.0296,13.3407 214.2696,13.0257 213.8256,12.5637 C213.3056,12.0247 213.0456,11.1547 213.0456,9.8767 L213.0456,6.1707 L211.8426,6.1707 L211.8426,4.0957 L213.0456,4.0957 L213.0456,2.1307 L215.8066,1.5007 Z" id="Fill-104" fill="#8CC63E" mask="url(#mask-4)"></path>
                        <path d="M219.457,-0.0003 L222.273,-0.0003 L222.273,5.1697 L222.311,5.1697 C222.607,4.7807 222.978,4.4837 223.423,4.2437 C223.83,4.0207 224.367,3.8917 224.886,3.8917 C226.684,3.8917 228.055,5.1327 228.055,7.8557 L228.055,13.1557 L225.238,13.1557 L225.238,8.1717 C225.238,6.9857 224.83,6.1707 223.774,6.1707 C223.033,6.1707 222.57,6.6517 222.366,7.1517 C222.292,7.3377 222.273,7.5787 222.273,7.7827 L222.273,13.1557 L219.457,13.1557 L219.457,-0.0003 Z" id="Fill-105" fill="#8CC63E" mask="url(#mask-4)"></path>
                        <path d="M236.9844,11.0251 C237.2254,11.0811 237.6144,11.0811 237.9664,11.0811 C240.5234,11.0991 242.1914,9.6911 242.1914,6.7081 C242.2104,4.1141 240.6904,2.7431 238.2624,2.7431 C237.6334,2.7431 237.2254,2.7971 236.9844,2.8531 L236.9844,11.0251 Z M234.1494,0.8341 C235.1874,0.6681 236.5404,0.5751 237.9664,0.5751 C240.3384,0.5751 241.8764,1.0011 243.0804,1.9091 C244.3784,2.8721 245.1934,4.4101 245.1934,6.6151 C245.1934,9.0051 244.3224,10.6541 243.1184,11.6731 C241.8014,12.7661 239.8004,13.2861 237.3554,13.2861 C235.8914,13.2861 234.8534,13.1931 234.1494,13.1001 L234.1494,0.8341 Z" id="Fill-106" fill="#8CC63E" mask="url(#mask-4)"></path>
                        <path d="M251.7715,8.8757 C250.2895,8.8567 249.1395,9.2097 249.1395,10.3027 C249.1395,11.0247 249.6215,11.3767 250.2505,11.3767 C250.9555,11.3767 251.5305,10.9137 251.7155,10.3397 C251.7515,10.1907 251.7715,10.0237 251.7715,9.8577 L251.7715,8.8757 Z M252.1045,13.1557 L251.9375,12.2477 L251.8815,12.2477 C251.2895,12.9707 250.3625,13.3597 249.2885,13.3597 C247.4535,13.3597 246.3605,12.0247 246.3605,10.5797 C246.3605,8.2277 248.4725,7.0967 251.6775,7.1147 L251.6775,6.9857 C251.6775,6.5037 251.4185,5.8177 250.0295,5.8177 C249.1025,5.8177 248.1205,6.1337 247.5275,6.5037 L247.0085,4.6887 C247.6385,4.3357 248.8795,3.8917 250.5295,3.8917 C253.5495,3.8917 254.5125,5.6697 254.5125,7.8007 L254.5125,10.9507 C254.5125,11.8217 254.5495,12.6547 254.6425,13.1557 L252.1045,13.1557 Z" id="Fill-107" fill="#8CC63E" mask="url(#mask-4)"></path>
                        <path d="M259.8857,1.5007 L259.8857,4.0957 L261.9057,4.0957 L261.9057,6.1707 L259.8857,6.1707 L259.8857,9.4497 C259.8857,10.5437 260.1457,11.0437 260.9977,11.0437 C261.3497,11.0437 261.6277,11.0067 261.8307,10.9697 L261.8507,13.1007 C261.4797,13.2487 260.8127,13.3407 260.0157,13.3407 C259.1077,13.3407 258.3477,13.0257 257.9037,12.5637 C257.3847,12.0247 257.1247,11.1547 257.1247,9.8767 L257.1247,6.1707 L255.9207,6.1707 L255.9207,4.0957 L257.1247,4.0957 L257.1247,2.1307 L259.8857,1.5007 Z" id="Fill-108" fill="#8CC63E" mask="url(#mask-4)"></path>
                        <path d="M268.3535,8.8757 C266.8715,8.8567 265.7225,9.2097 265.7225,10.3027 C265.7225,11.0247 266.2045,11.3767 266.8335,11.3767 C267.5385,11.3767 268.1125,10.9137 268.2975,10.3397 C268.3345,10.1907 268.3535,10.0237 268.3535,9.8577 L268.3535,8.8757 Z M268.6865,13.1557 L268.5195,12.2477 L268.4635,12.2477 C267.8715,12.9707 266.9455,13.3597 265.8705,13.3597 C264.0365,13.3597 262.9425,12.0247 262.9425,10.5797 C262.9425,8.2277 265.0545,7.0967 268.2605,7.1147 L268.2605,6.9857 C268.2605,6.5037 268.0005,5.8177 266.6115,5.8177 C265.6855,5.8177 264.7035,6.1337 264.1095,6.5037 L263.5905,4.6887 C264.2205,4.3357 265.4625,3.8917 267.1125,3.8917 C270.1315,3.8917 271.0955,5.6697 271.0955,7.8007 L271.0955,10.9507 C271.0955,11.8217 271.1325,12.6547 271.2245,13.1557 L268.6865,13.1557 Z" id="Fill-109" fill="#8CC63E" mask="url(#mask-4)"></path>
                        <path d="M178.6211,19.7146 C178.6211,20.3446 178.9181,20.9006 179.4741,21.5116 C180.3821,20.8816 180.8461,20.4006 180.8461,19.6776 C180.8461,19.0846 180.4931,18.4356 179.7521,18.4356 C179.0291,18.4356 178.6211,19.0666 178.6211,19.7146 L178.6211,19.7146 Z M181.1421,26.9026 C180.3631,26.1256 179.3441,24.9946 178.3241,23.8466 C177.8071,24.2166 177.3431,24.7536 177.3431,25.5686 C177.3431,26.6246 178.1401,27.5326 179.4181,27.5326 C180.1591,27.5326 180.7701,27.2556 181.1421,26.9026 L181.1421,26.9026 Z M183.2721,29.3676 C183.0131,29.0896 182.7541,28.8116 182.4571,28.4786 C181.6421,29.1086 180.5111,29.5716 179.0291,29.5716 C176.0091,29.5716 174.6751,27.7746 174.6751,26.0316 C174.6751,24.3836 175.6191,23.1976 177.0461,22.4566 L177.0461,22.3816 C176.5091,21.7896 176.1011,20.8626 176.1011,19.9736 C176.1011,18.3996 177.3431,16.6756 179.8451,16.6756 C181.7711,16.6756 183.2351,17.8066 183.2351,19.6036 C183.2351,20.8626 182.4941,21.9376 180.7701,22.8086 L180.7521,22.8826 C181.4751,23.6796 182.2341,24.5876 182.8461,25.2176 C183.3471,24.4396 183.7351,23.2896 183.9021,22.1786 L186.4231,22.1786 C186.0881,24.0686 185.4591,25.6806 184.3471,26.9216 C185.0511,27.7186 185.7731,28.5336 186.5521,29.3676 L183.2721,29.3676 Z" id="Fill-110" fill="#8CC63E" mask="url(#mask-4)"></path>
                        <path d="M202.1894,24.5876 C202.1344,23.0866 202.0794,21.2716 202.0794,19.4546 L202.0234,19.4546 C201.6334,21.0486 201.1144,22.8266 200.6324,24.2906 L199.1144,29.1636 L196.9084,29.1636 L195.5744,24.3276 C195.1674,22.8636 194.7414,21.0856 194.4444,19.4546 L194.4074,19.4546 C194.3344,21.1416 194.2784,23.0666 194.1844,24.6246 L193.9624,29.3676 L191.3504,29.3676 L192.1474,16.8796 L195.9084,16.8796 L197.1304,21.0486 C197.5204,22.4926 197.9094,24.0506 198.1874,25.5136 L198.2434,25.5136 C198.5944,24.0676 199.0214,22.4196 199.4284,21.0296 L200.7624,16.8796 L204.4504,16.8796 L205.1354,29.3676 L202.3754,29.3676 L202.1894,24.5876 Z" id="Fill-111" fill="#8CC63E" mask="url(#mask-4)"></path>
                        <path d="M212.0283,25.0876 C210.5463,25.0686 209.3963,25.4206 209.3963,26.5146 C209.3963,27.2366 209.8793,27.5886 210.5083,27.5886 C211.2133,27.5886 211.7873,27.1256 211.9723,26.5516 C212.0093,26.4026 212.0283,26.2356 212.0283,26.0696 L212.0283,25.0876 Z M212.3613,29.3676 L212.1943,28.4596 L212.1383,28.4596 C211.5463,29.1826 210.6203,29.5716 209.5453,29.5716 C207.7113,29.5716 206.6173,28.2366 206.6173,26.7916 C206.6173,24.4396 208.7293,23.3096 211.9343,23.3266 L211.9343,23.1976 C211.9343,22.7166 211.6753,22.0306 210.2863,22.0306 C209.3603,22.0306 208.3773,22.3456 207.7843,22.7166 L207.2653,20.9006 C207.8953,20.5486 209.1373,20.1036 210.7873,20.1036 C213.8063,20.1036 214.7703,21.8816 214.7703,24.0126 L214.7703,27.1626 C214.7703,28.0336 214.8063,28.8666 214.8993,29.3676 L212.3613,29.3676 Z" id="Fill-112" fill="#8CC63E" mask="url(#mask-4)"></path>
                        <path d="M216.9931,23.198 C216.9931,22.068 216.9561,21.104 216.9191,20.307 L219.3641,20.307 L219.4941,21.549 L219.5501,21.549 C219.9211,20.974 220.8471,20.103 222.3471,20.103 C224.2001,20.103 225.5911,21.327 225.5911,23.995 L225.5911,29.368 L222.7741,29.368 L222.7741,24.346 C222.7741,23.178 222.3661,22.382 221.3471,22.382 C220.5691,22.382 220.1051,22.92 219.9211,23.438 C219.8471,23.605 219.8091,23.884 219.8091,24.142 L219.8091,29.368 L216.9931,29.368 L216.9931,23.198 Z" id="Fill-113" fill="#8CC63E" mask="url(#mask-4)"></path>
                        <path d="M232.6689,25.0876 C231.1869,25.0686 230.0369,25.4206 230.0369,26.5146 C230.0369,27.2366 230.5189,27.5886 231.1479,27.5886 C231.8529,27.5886 232.4269,27.1256 232.6129,26.5516 C232.6489,26.4026 232.6689,26.2356 232.6689,26.0696 L232.6689,25.0876 Z M233.0019,29.3676 L232.8349,28.4596 L232.7789,28.4596 C232.1869,29.1826 231.2599,29.5716 230.1859,29.5716 C228.3519,29.5716 227.2579,28.2366 227.2579,26.7916 C227.2579,24.4396 229.3699,23.3096 232.5759,23.3266 L232.5759,23.1976 C232.5759,22.7166 232.3159,22.0306 230.9269,22.0306 C229.9999,22.0306 229.0189,22.3456 228.4259,22.7166 L227.9059,20.9006 C228.5359,20.5486 229.7769,20.1036 231.4269,20.1036 C234.4469,20.1036 235.4099,21.8816 235.4099,24.0126 L235.4099,27.1626 C235.4099,28.0336 235.4469,28.8666 235.5409,29.3676 L233.0019,29.3676 Z" id="Fill-114" fill="#8CC63E" mask="url(#mask-4)"></path>
                        <path d="M243.3965,23.9949 C243.3965,23.8089 243.3775,23.6239 243.3405,23.4749 C243.1365,22.7339 242.5995,22.2339 241.8205,22.2339 C240.8015,22.2339 239.9675,23.1609 239.9675,24.8089 C239.9675,26.1619 240.6345,27.2189 241.8205,27.2189 C242.5435,27.2189 243.1185,26.7359 243.3025,26.0699 C243.3775,25.8659 243.3965,25.5689 243.3965,25.3289 L243.3965,23.9949 Z M246.2865,20.3069 C246.2505,20.8819 246.2115,21.6409 246.2115,22.9939 L246.2115,28.0529 C246.2115,29.7939 245.8605,31.2219 244.8405,32.1289 C243.8395,32.9809 242.4885,33.2409 241.1545,33.2409 C239.9675,33.2409 238.7085,32.9999 237.8925,32.5359 L238.4495,30.4049 C239.0235,30.7389 240.0235,31.0909 241.0795,31.0909 C242.4145,31.0909 243.4335,30.3689 243.4335,28.6999 L243.4335,28.1069 L243.3965,28.1069 C242.8585,28.8669 241.9875,29.2939 240.9505,29.2939 C238.7085,29.2939 237.1155,27.4769 237.1155,24.8649 C237.1155,21.9569 239.0035,20.1029 241.2275,20.1029 C242.4695,20.1029 243.2475,20.6409 243.7105,21.3829 L243.7485,21.3829 L243.8395,20.3069 L246.2865,20.3069 Z" id="Fill-115" fill="#8CC63E" mask="url(#mask-4)"></path>
                        <path d="M253.957,23.8093 C253.957,23.1223 253.66,21.9753 252.363,21.9753 C251.178,21.9753 250.696,23.0493 250.622,23.8093 L253.957,23.8093 Z M250.641,25.7363 C250.732,26.9033 251.882,27.4593 253.197,27.4593 C254.161,27.4593 254.938,27.3293 255.699,27.0883 L256.069,28.9963 C255.143,29.3683 254.013,29.5523 252.79,29.5523 C249.714,29.5523 247.954,27.7743 247.954,24.9393 C247.954,22.6413 249.381,20.1033 252.53,20.1033 C255.458,20.1033 256.569,22.3813 256.569,24.6243 C256.569,25.1063 256.514,25.5323 256.477,25.7363 L250.641,25.7363 Z" id="Fill-116" fill="#8CC63E" mask="url(#mask-4)"></path>
                        <path d="M258.2549,23.198 C258.2549,22.068 258.2179,21.104 258.1819,20.307 L260.5529,20.307 L260.6829,21.531 L260.7379,21.531 C261.1269,20.956 261.9239,20.103 263.4809,20.103 C264.6479,20.103 265.5739,20.696 265.9629,21.641 L265.9999,21.641 C266.3339,21.178 266.7409,20.807 267.1679,20.549 C267.6679,20.252 268.2239,20.103 268.8909,20.103 C270.6329,20.103 271.9479,21.327 271.9479,24.031 L271.9479,29.368 L269.2049,29.368 L269.2049,24.439 C269.2049,23.123 268.7789,22.364 267.8719,22.364 C267.2239,22.364 266.7599,22.808 266.5749,23.345 C266.4999,23.55 266.4639,23.846 266.4639,24.068 L266.4639,29.368 L263.7219,29.368 L263.7219,24.291 C263.7219,23.142 263.3139,22.364 262.4239,22.364 C261.7009,22.364 261.2759,22.92 261.1089,23.383 C261.0159,23.605 260.9979,23.864 260.9979,24.087 L260.9979,29.368 L258.2549,29.368 L258.2549,23.198 Z" id="Fill-117" fill="#8CC63E" mask="url(#mask-4)"></path>
                        <path d="M279.6738,23.8093 C279.6738,23.1223 279.3778,21.9753 278.0798,21.9753 C276.8948,21.9753 276.4128,23.0493 276.3388,23.8093 L279.6738,23.8093 Z M276.3578,25.7363 C276.4498,26.9033 277.5988,27.4593 278.9148,27.4593 C279.8778,27.4593 280.6558,27.3293 281.4158,27.0883 L281.7858,28.9963 C280.8608,29.3683 279.7298,29.5523 278.5068,29.5523 C275.4308,29.5523 273.6708,27.7743 273.6708,24.9393 C273.6708,22.6413 275.0978,20.1033 278.2468,20.1033 C281.1748,20.1033 282.2868,22.3813 282.2868,24.6243 C282.2868,25.1063 282.2318,25.5323 282.1948,25.7363 L276.3578,25.7363 Z" id="Fill-118" fill="#8CC63E" mask="url(#mask-4)"></path>
                        <path d="M283.9716,23.198 C283.9716,22.068 283.9356,21.104 283.8986,20.307 L286.3436,20.307 L286.4736,21.549 L286.5296,21.549 C286.8996,20.974 287.8256,20.103 289.3266,20.103 C291.1796,20.103 292.5696,21.327 292.5696,23.995 L292.5696,29.368 L289.7526,29.368 L289.7526,24.346 C289.7526,23.178 289.3456,22.382 288.3256,22.382 C287.5486,22.382 287.0846,22.92 286.8996,23.438 C286.8256,23.605 286.7876,23.884 286.7876,24.142 L286.7876,29.368 L283.9716,29.368 L283.9716,23.198 Z" id="Fill-119" fill="#8CC63E" mask="url(#mask-4)"></path>
                        <path d="M297.9795,17.7136 L297.9795,20.3076 L300.0005,20.3076 L300.0005,22.3816 L297.9795,22.3816 L297.9795,25.6616 C297.9795,26.7556 298.2395,27.2556 299.0915,27.2556 C299.4445,27.2556 299.7215,27.2186 299.9255,27.1816 L299.9445,29.3126 C299.5735,29.4606 298.9065,29.5526 298.1095,29.5526 C297.2025,29.5526 296.4425,29.2376 295.9975,28.7756 C295.4785,28.2366 295.2185,27.3666 295.2185,26.0876 L295.2185,22.3816 L294.0145,22.3816 L294.0145,20.3076 L295.2185,20.3076 L295.2185,18.3436 L297.9795,17.7136 Z" id="Fill-120" fill="#8CC63E" mask="url(#mask-4)"></path>
                        <path d="M175.416,42.6706 C176.176,43.0606 177.343,43.4486 178.547,43.4486 C179.845,43.4486 180.53,42.9116 180.53,42.0966 C180.53,41.3176 179.937,40.8736 178.436,40.3366 C176.36,39.6136 175.009,38.4646 175.009,36.6496 C175.009,34.5186 176.787,32.8876 179.733,32.8876 C181.142,32.8876 182.179,33.1846 182.921,33.5176 L182.29,35.7966 C181.79,35.5556 180.9,35.2036 179.678,35.2036 C178.455,35.2036 177.862,35.7596 177.862,36.4076 C177.862,37.2046 178.566,37.5566 180.178,38.1686 C182.383,38.9826 183.42,40.1326 183.42,41.8936 C183.42,43.9856 181.809,45.7656 178.38,45.7656 C176.954,45.7656 175.546,45.3956 174.842,45.0056 L175.416,42.6706 Z" id="Fill-121" fill="#8CC63E" mask="url(#mask-4)"></path>
                        <path d="M187.626,41.0408 C187.626,42.5968 188.275,43.7648 189.479,43.7648 C190.572,43.7648 191.276,42.6708 191.276,41.0408 C191.276,39.6868 190.758,38.3158 189.479,38.3158 C188.127,38.3158 187.626,39.7068 187.626,41.0408 M194.186,40.9478 C194.186,44.2648 191.832,45.7838 189.405,45.7838 C186.755,45.7838 184.718,44.0418 184.718,41.1138 C184.718,38.1868 186.645,36.3148 189.554,36.3148 C192.332,36.3148 194.186,38.2248 194.186,40.9478" id="Fill-122" fill="#8CC63E" mask="url(#mask-4)"></path>
                        <polygon id="Fill-123" fill="#8CC63E" mask="url(#mask-4)" points="195.927 45.5799 198.743 45.5799 198.743 32.4249 195.927 32.4249"></polygon>
                        <path d="M209.5635,42.6706 C209.5635,43.8576 209.6005,44.8196 209.6375,45.5796 L207.1915,45.5796 L207.0625,44.3016 L207.0065,44.3016 C206.6545,44.8576 205.8015,45.7836 204.1705,45.7836 C202.3365,45.7836 200.9845,44.6346 200.9845,41.8376 L200.9845,36.5196 L203.8195,36.5196 L203.8195,41.3926 C203.8195,42.7076 204.2465,43.5046 205.2275,43.5046 C206.0055,43.5046 206.4505,42.9676 206.6355,42.5236 C206.7095,42.3566 206.7285,42.1336 206.7285,41.9106 L206.7285,36.5196 L209.5635,36.5196 L209.5635,42.6706 Z" id="Fill-124" fill="#8CC63E" mask="url(#mask-4)"></path>
                        <path d="M214.9736,33.9255 L214.9736,36.5195 L216.9936,36.5195 L216.9936,38.5945 L214.9736,38.5945 L214.9736,41.8735 C214.9736,42.9675 215.2336,43.4675 216.0856,43.4675 C216.4376,43.4675 216.7146,43.4305 216.9186,43.3935 L216.9376,45.5245 C216.5676,45.6725 215.9006,45.7655 215.1036,45.7655 C214.1956,45.7655 213.4356,45.4505 212.9916,44.9875 C212.4726,44.4495 212.2126,43.5785 212.2126,42.2995 L212.2126,38.5945 L211.0086,38.5945 L211.0086,36.5195 L212.2126,36.5195 L212.2126,34.5555 L214.9736,33.9255 Z" id="Fill-125" fill="#8CC63E" mask="url(#mask-4)"></path>
                        <path d="M218.623,45.5799 L221.439,45.5799 L221.439,36.5189 L218.623,36.5189 L218.623,45.5799 Z M221.532,33.9989 C221.532,34.7779 220.938,35.4079 220.013,35.4079 C219.123,35.4079 218.53,34.7779 218.549,33.9989 C218.53,33.1839 219.123,32.5719 220.031,32.5719 C220.938,32.5719 221.514,33.1839 221.532,33.9989 L221.532,33.9989 Z" id="Fill-126" fill="#8CC63E" mask="url(#mask-4)"></path>
                        <path d="M226.0898,41.0408 C226.0898,42.5968 226.7378,43.7648 227.9428,43.7648 C229.0358,43.7648 229.7398,42.6708 229.7398,41.0408 C229.7398,39.6868 229.2208,38.3158 227.9428,38.3158 C226.5908,38.3158 226.0898,39.7068 226.0898,41.0408 M232.6498,40.9478 C232.6498,44.2648 230.2958,45.7838 227.8688,45.7838 C225.2188,45.7838 223.1808,44.0418 223.1808,41.1138 C223.1808,38.1868 225.1088,36.3148 228.0168,36.3148 C230.7958,36.3148 232.6498,38.2248 232.6498,40.9478" id="Fill-127" fill="#8CC63E" mask="url(#mask-4)"></path>
                        <path d="M234.3906,39.4099 C234.3906,38.2799 234.3536,37.3159 234.3166,36.5189 L236.7616,36.5189 L236.8926,37.7609 L236.9476,37.7609 C237.3186,37.1859 238.2446,36.3149 239.7446,36.3149 C241.5976,36.3149 242.9876,37.5389 242.9876,40.2069 L242.9876,45.5799 L240.1716,45.5799 L240.1716,40.5589 C240.1716,39.3909 239.7636,38.5949 238.7446,38.5949 C237.9666,38.5949 237.5026,39.1329 237.3186,39.6509 C237.2446,39.8179 237.2066,40.0959 237.2066,40.3549 L237.2066,45.5799 L234.3906,45.5799 L234.3906,39.4099 Z" id="Fill-128" fill="#8CC63E" mask="url(#mask-4)"></path>
                        <path d="M245.2295,43.1159 C245.7495,43.4299 246.8235,43.8019 247.6575,43.8019 C248.5095,43.8019 248.8615,43.5049 248.8615,43.0409 C248.8615,42.5789 248.5835,42.3559 247.5275,42.0039 C245.6565,41.3739 244.9325,40.3549 244.9525,39.2799 C244.9525,37.5949 246.3975,36.3149 248.6395,36.3149 C249.6955,36.3149 250.6405,36.5559 251.1965,36.8349 L250.6965,38.7799 C250.2885,38.5569 249.5095,38.2609 248.7325,38.2609 C248.0465,38.2609 247.6575,38.5389 247.6575,39.0019 C247.6575,39.4279 248.0085,39.6509 249.1215,40.0399 C250.8435,40.6329 251.5665,41.5039 251.5845,42.8379 C251.5845,44.5229 250.2505,45.7649 247.6575,45.7649 C246.4705,45.7649 245.4155,45.5059 244.7295,45.1359 L245.2295,43.1159 Z" id="Fill-129" fill="#8CC63E" mask="url(#mask-4)"></path>
                        <path d="M164.8076,3.4167 L165.1476,3.4167 C165.5446,3.4167 165.8666,3.2847 165.8666,2.9637 C165.8666,2.6807 165.6586,2.4907 165.2046,2.4907 C165.0156,2.4907 164.8836,2.5107 164.8076,2.5297 L164.8076,3.4167 Z M164.7896,5.1737 L164.0716,5.1737 L164.0716,2.0757 C164.3546,2.0197 164.7506,1.9807 165.2616,1.9807 C165.8476,1.9807 166.1106,2.0757 166.3376,2.2087 C166.5066,2.3407 166.6396,2.5857 166.6396,2.8887 C166.6396,3.2287 166.3746,3.4917 165.9976,3.6057 L165.9976,3.6447 C166.2996,3.7567 166.4706,3.9837 166.5646,4.3987 C166.6596,4.8707 166.7146,5.0607 166.7916,5.1737 L166.0166,5.1737 C165.9226,5.0607 165.8666,4.7757 165.7706,4.4177 C165.7146,4.0777 165.5266,3.9267 165.1296,3.9267 L164.7896,3.9267 L164.7896,5.1737 Z M162.8806,3.5497 C162.8806,4.9277 163.9026,6.0227 165.2986,6.0227 C166.6596,6.0227 167.6596,4.9277 167.6596,3.5677 C167.6596,2.1887 166.6596,1.0747 165.2806,1.0747 C163.9026,1.0747 162.8806,2.1887 162.8806,3.5497 L162.8806,3.5497 Z M168.4526,3.5497 C168.4526,5.3057 167.0746,6.6847 165.2806,6.6847 C163.5056,6.6847 162.0886,5.3057 162.0886,3.5497 C162.0886,1.8307 163.5056,0.4517 165.2806,0.4517 C167.0746,0.4517 168.4526,1.8307 168.4526,3.5497 L168.4526,3.5497 Z" id="Fill-130" fill="#004990" mask="url(#mask-4)"></path>
                    </g>
                </g>
            </g>
        </g>
    </g>
</svg>