<svg xmlns="http://www.w3.org/2000/svg" width="279" height="255">
    <g fill="#004990" fill-rule="evenodd" opacity=".1">
        <path d="M191.912 239.055c0-6.376-1.853-11.544-4.126-11.544h-21.382c-2.266 0-4.12 5.168-4.12 11.544v3.494c0 6.38 1.854 11.555 4.12 11.555h21.382c2.273 0 4.126-5.175 4.126-11.555v-3.494M243.916 138.648c0-5.762-1.684-10.439-3.765-10.439h-19.547c-2.074 0-3.761 4.677-3.761 10.439v3.158c0 5.761 1.687 10.438 3.761 10.438h19.547c2.081 0 3.765-4.677 3.765-10.438v-3.158M106.224 226.106c0-7.237-2.13-13.106-4.764-13.106H76.767c-2.63 0-4.767 5.869-4.767 13.106v3.957c0 7.233 2.138 13.109 4.767 13.109h24.693c2.633 0 4.764-5.876 4.764-13.11v-3.956M278.14 169.042c0-5.889-1.686-10.661-3.765-10.661h-19.547c-2.065 0-3.761 4.772-3.761 10.661v3.22c0 5.89 1.696 10.666 3.76 10.666h19.548c2.079 0 3.764-4.776 3.764-10.665v-3.22M34.224 196.098c0-7.23-2.127-13.098-4.755-13.098H4.779C2.143 183 0 188.868 0 196.098v3.949c0 7.253 2.143 13.125 4.779 13.125h24.69c2.628 0 4.755-5.872 4.755-13.125v-3.95M179.224 13.102C179.224 5.867 177.09 0 174.461 0h-24.698C147.137 0 145 5.867 145 13.102v3.964c0 7.24 2.137 13.106 4.763 13.106h24.698c2.63 0 4.763-5.867 4.763-13.106v-3.964M204.073 73.708c0-5.779-1.69-10.445-3.77-10.445h-19.54c-2.067 0-3.763 4.666-3.763 10.445v3.166c0 5.751 1.696 10.424 3.762 10.424h19.542c2.08 0 3.769-4.673 3.769-10.424v-3.166M106.224 138.118c0-7.247-2.13-13.118-4.764-13.118H76.767c-2.63 0-4.767 5.871-4.767 13.118v3.943c0 7.24 2.138 13.11 4.767 13.11h24.693c2.633 0 4.764-5.87 4.764-13.11v-3.943M257.073 61.674c0-5.899-1.686-10.674-3.765-10.674h-19.547C231.696 51 230 55.775 230 61.674v3.209c0 5.892 1.696 10.664 3.761 10.664h19.547c2.079 0 3.765-4.772 3.765-10.664v-3.209M82.088 28.102c0-7.235-2.13-13.102-4.766-13.102H52.63c-2.625 0-4.766 5.867-4.766 13.102v3.964c0 7.24 2.14 13.106 4.766 13.106h24.692c2.636 0 4.766-5.867 4.766-13.106v-3.964M48.224 100.111c0-7.233-2.127-13.111-4.755-13.111h-24.69C16.143 87 14 92.878 14 100.111v3.946c0 7.25 2.143 13.115 4.779 13.115h24.69c2.628 0 4.755-5.865 4.755-13.115v-3.946"/>
    </g>
</svg>
