<?xml version="1.0" encoding="UTF-8"?>
<svg width="25px" height="19px" viewBox="0 0 25 19" version="1.1" xmlns="http://www.w3.org/2000/svg" xmlns:xlink="http://www.w3.org/1999/xlink">
    <title>Icon/Arrow</title>
    <g id="Page-1" stroke="none" stroke-width="1" fill="none" fill-rule="evenodd">
        <g id="Cards" transform="translate(-469.000000, -1622.000000)" fill="#004990" fill-rule="nonzero">
            <g id="Group-3" transform="translate(176.000000, 1586.000000)">
                <g id="Icon/Arrow" transform="translate(293.000000, 36.000000)">
                    <path d="M24.6672849,8.2736167 L16.7126622,0.318994029 C16.2667728,-0.111660389 15.5580092,-0.105501425 15.1196711,0.332836691 C14.681333,0.771174808 14.675174,1.47993838 15.1058284,1.92582781 L21.1206596,7.94065892 L1.13637467,7.94065892 C0.508772268,7.94065892 0,8.44943119 0,9.07703359 C0,9.70463598 0.508772268,10.2134083 1.13637467,10.2134083 L21.1206596,10.2134083 L15.1058284,16.2282394 C14.8104204,16.513554 14.6919465,16.936062 14.7959423,17.333372 C14.8999381,17.7306821 15.2102195,18.0409635 15.6075295,18.1449593 C16.0048396,18.2489551 16.4273476,18.1304812 16.7126622,17.8350731 L24.6672849,9.88045048 C25.110905,9.43669634 25.110905,8.71737083 24.6672849,8.2736167 Z" id="Path"></path>
                </g>
            </g>
        </g>
    </g>
</svg>