<?xml version="1.0" encoding="UTF-8"?>
<svg width="65px" height="65px" viewBox="0 0 65 65" version="1.1" xmlns="http://www.w3.org/2000/svg" xmlns:xlink="http://www.w3.org/1999/xlink">
    <title>Enlight_icons-03</title>
    <g id="Page-1" stroke="none" stroke-width="1" fill="none" fill-rule="evenodd">
        <g id="Cards" transform="translate(-277.000000, -1213.000000)" fill-rule="nonzero">
            <g id="Group-7" transform="translate(202.000000, 1213.000000)">
                <g id="Enlight_icons-03" transform="translate(75.000000, 0.000000)">
                    <path d="M29.3821149,40.4679287 C29.247359,40.8182811 29.37941,41.2150112 29.6972519,41.4147172 C30.0150938,41.6144231 30.4298284,41.5612485 30.6870075,41.287817 L37.9851683,33.5854859 C38.1497464,33.4386882 38.243858,33.2286344 38.243858,33.0080998 C38.243858,32.7875652 38.1497464,32.5775114 37.9851683,32.4307137 C37.87879,32.328906 37.7472831,32.2571749 37.6040934,32.2228547 L35.1675239,31.7609457 L36.8650392,26.8300681 C36.9346182,26.6341397 36.9224113,26.4184523 36.8311703,26.2316254 C36.7399293,26.0447985 36.5773335,25.9025569 36.3800348,25.836964 C36.0769978,25.7313402 35.7401719,25.8178225 35.5255034,26.0563707 L28.2273426,34.4053742 C28.0759014,34.5650703 27.9984291,34.7809903 28.0137974,35.0005377 C28.0291658,35.2200852 28.1359639,35.4231063 28.3081767,35.5601465 C28.4117965,35.6483102 28.5342658,35.7115202 28.6661561,35.7449101 L31.0680824,36.206819 L29.3821149,40.4679287 Z" id="Path" fill="#00A5BD"></path>
                    <path d="M43.4241457,18.8274963 C39.1565112,15.4711558 33.5867428,14.2542316 28.3081767,15.5248476 C21.9931114,17.0104825 17.0505115,21.9218284 15.5248476,28.2273426 C13.7739677,35.0190278 16.2627398,42.1987033 21.8414519,46.449649 C22.3005164,46.8738708 22.5532405,47.4761965 22.5343153,48.1009734 L22.5343153,57.5123674 C22.5652212,59.4127079 24.0982916,60.9457783 25.9986321,60.9766842 L28.1926994,60.9766842 C28.7533139,62.9079798 30.5236273,64.2357149 32.5346432,64.2331458 C34.5052955,64.2102532 36.2443747,62.939566 36.8650392,61.069066 L39.0591065,61.069066 C40.959447,61.0381601 42.4925174,59.5050897 42.5234233,57.6047492 L42.5234233,48.0663302 C42.4951215,47.4966251 42.7189722,46.9433336 43.1354526,46.5535785 C47.4800763,43.2681186 50.0424925,38.1432862 50.0640863,32.6963113 C50.0438004,27.3112678 47.6062612,22.2199903 43.4241457,18.8274963 Z M26.7607818,56.7617654 L26.7607818,52.7778011 L38.3085045,52.7778011 L38.3085045,56.7617654 L26.7607818,56.7617654 Z M40.6180491,43.1470003 C39.1210341,44.3351938 38.2664073,46.1555489 38.3085045,48.0663302 L38.3085045,48.6206209 L26.7607818,48.6206209 L26.7607818,48.0663302 C26.7814044,46.1339561 25.9336579,44.294346 24.4512373,43.0546186 C20.1784986,39.811577 18.259558,34.3275905 19.5780983,29.128065 C20.7911124,24.4107803 24.5241589,20.757823 29.2666376,19.6473846 C33.2912679,18.6632796 37.5449643,19.5735706 40.8143604,22.1185973 C44.0225729,24.6131814 45.9014454,28.4476152 45.9069061,32.5115477 C45.8769231,36.6822573 43.9256113,40.6061835 40.6180491,43.1470003 L40.6180491,43.1470003 Z" id="Shape" fill="#004990"></path>
                    <path d="M32.5346432,10.7787336 C33.7055028,10.7724215 34.6531121,9.82481222 34.6594241,8.65395259 L34.6594241,1.97936885 C34.5772117,0.863426379 33.647836,0 32.5288693,0 C31.4099026,0 30.4805269,0.863426379 30.3983145,1.97936885 L30.3983145,8.65395259 C30.4109086,9.82667768 31.361867,10.7724959 32.5346432,10.7787336 Z" id="Path" fill="#004990"></path>
                    <path d="M17.176172,17.1068856 C17.9946075,16.2644321 17.9946075,14.9238358 17.176172,14.0813823 L12.4300579,9.33526823 C11.5770346,8.63572436 10.3316576,8.70072547 9.55609483,9.48527163 C8.78053201,10.2698178 8.72987689,11.5158608 9.43919773,12.3607716 L14.1853118,17.1068856 C15.0277653,17.9253212 16.3683616,17.9253212 17.2108151,17.1068856 L17.176172,17.1068856 Z" id="Path" fill="#004990"></path>
                    <path d="M8.65395259,30.3636713 L1.97936885,30.3636713 C0.863426379,30.4458838 0,31.3752594 0,32.4942261 C0,33.6131928 0.863426379,34.5425685 1.97936885,34.624781 L8.65395259,34.624781 C9.76989506,34.5425685 10.6333214,33.6131928 10.6333214,32.4942261 C10.6333214,31.3752594 9.76989506,30.4458838 8.65395259,30.3636713 L8.65395259,30.3636713 Z" id="Path" fill="#004990"></path>
                    <path d="M63.0206311,30.3636713 L56.3460474,30.3636713 C55.2301049,30.4458838 54.3666786,31.3752594 54.3666786,32.4942261 C54.3666786,33.6131928 55.2301049,34.5425685 56.3460474,34.624781 L63.0206311,34.624781 C64.1365736,34.5425685 65,33.6131928 65,32.4942261 C65,31.3752594 64.1365736,30.4458838 63.0206311,30.3636713 L63.0206311,30.3636713 Z" id="Path" fill="#004990"></path>
                    <path d="M55.6300886,9.40455456 C54.7876351,8.58611903 53.4470388,8.58611903 52.6045853,9.40455456 L47.8584712,14.1506686 C47.0230016,14.9861383 47.0230016,16.3407022 47.8584713,17.1761719 C48.6939409,18.0116416 50.0485049,18.0116416 50.8839746,17.176172 L55.6300886,12.4300579 C56.4485241,11.5876044 56.4485241,10.2470081 55.6300886,9.40455456 L55.6300886,9.40455456 Z" id="Path" fill="#004990"></path>
                </g>
            </g>
        </g>
    </g>
</svg>