<?xml version="1.0" encoding="UTF-8"?>
<svg width="63px" height="62px" viewBox="0 0 63 62" version="1.1" xmlns="http://www.w3.org/2000/svg" xmlns:xlink="http://www.w3.org/1999/xlink">
    <!-- Generator: Sketch 53.2 (72643) - https://sketchapp.com -->
    <title>icon-data</title>
    <desc>Created with Sketch.</desc>
    <g id="Desktop" stroke="none" stroke-width="1" fill="none" fill-rule="evenodd">
        <g id="Solutions-Page" transform="translate(-774.000000, -3140.000000)">
            <g id="Robust,-high-quality-data" transform="translate(165.000000, 2908.000000)">
                <g id="info-2" transform="translate(570.000000, 165.000000)">
                    <g id="icon-data" transform="translate(40.000000, 67.000000)">
                        <path d="M2.8397,9.9534 L2.8397,25.1164 C2.8397,26.5514 6.5067,28.6354 12.2527,28.6354 C17.9987,28.6354 21.6657,26.5514 21.6657,25.1164 L21.6657,9.9534 C19.5587,11.3484 16.1907,12.2184 12.2527,12.2184 C8.3157,12.2184 4.9467,11.3484 2.8397,9.9534 M12.2527,30.9724 C5.5537,30.9724 0.5017,28.4544 0.5017,25.1164 L0.5017,6.3624 C0.5017,5.7164 1.0257,5.1934 1.6707,5.1934 C2.3167,5.1934 2.8397,5.7164 2.8397,6.3624 C2.8397,7.7964 6.5067,9.8804 12.2527,9.8804 C17.9987,9.8804 21.6657,7.7964 21.6657,6.3624 C21.6657,5.7164 22.1897,5.1934 22.8347,5.1934 C23.4797,5.1934 24.0027,5.7164 24.0027,6.3624 L24.0027,25.1164 C24.0027,28.4544 18.9517,30.9724 12.2527,30.9724" id="Fill-1" fill="#004990"></path>
                        <path d="M2.8397,9.9534 L2.8397,25.1164 C2.8397,26.5514 6.5067,28.6354 12.2527,28.6354 C17.9987,28.6354 21.6657,26.5514 21.6657,25.1164 L21.6657,9.9534 C19.5587,11.3484 16.1907,12.2184 12.2527,12.2184 C8.3157,12.2184 4.9467,11.3484 2.8397,9.9534 Z M12.2527,30.9724 C5.5537,30.9724 0.5017,28.4544 0.5017,25.1164 L0.5017,6.3624 C0.5017,5.7164 1.0257,5.1934 1.6707,5.1934 C2.3167,5.1934 2.8397,5.7164 2.8397,6.3624 C2.8397,7.7964 6.5067,9.8804 12.2527,9.8804 C17.9987,9.8804 21.6657,7.7964 21.6657,6.3624 C21.6657,5.7164 22.1897,5.1934 22.8347,5.1934 C23.4797,5.1934 24.0027,5.7164 24.0027,6.3624 L24.0027,25.1164 C24.0027,28.4544 18.9517,30.9724 12.2527,30.9724 Z" id="Stroke-3" stroke="#004990"></path>
                        <path d="M12.2528,2.8372 C6.5068,2.8372 2.8398,4.9252 2.8398,6.3622 C2.8398,7.7962 6.5068,9.8802 12.2528,9.8802 C17.9988,9.8802 21.6658,7.7962 21.6658,6.3622 C21.6658,4.9252 17.9988,2.8372 12.2528,2.8372 M12.2528,12.2182 C5.5538,12.2182 0.5018,9.7002 0.5018,6.3622 C0.5018,3.0202 5.5538,0.5002 12.2528,0.5002 C18.9518,0.5002 24.0028,3.0202 24.0028,6.3622 C24.0028,9.7002 18.9518,12.2182 12.2528,12.2182" id="Fill-5" fill="#004990"></path>
                        <path d="M12.2528,2.8372 C6.5068,2.8372 2.8398,4.9252 2.8398,6.3622 C2.8398,7.7962 6.5068,9.8802 12.2528,9.8802 C17.9988,9.8802 21.6658,7.7962 21.6658,6.3622 C21.6658,4.9252 17.9988,2.8372 12.2528,2.8372 Z M12.2528,12.2182 C5.5538,12.2182 0.5018,9.7002 0.5018,6.3622 C0.5018,3.0202 5.5538,0.5002 12.2528,0.5002 C18.9518,0.5002 24.0028,3.0202 24.0028,6.3622 C24.0028,9.7002 18.9518,12.2182 12.2528,12.2182 Z" id="Stroke-7" stroke="#004990"></path>
                        <path d="M12.2509,21.595 C5.5519,21.595 0.4999,19.077 0.4999,15.739 C0.4999,15.092 1.0229,14.57 1.6689,14.57 C2.3139,14.57 2.8379,15.092 2.8379,15.739 C2.8379,17.173 6.5049,19.258 12.2509,19.258 C17.9979,19.258 21.6649,17.173 21.6649,15.739 C21.6649,15.092 22.1889,14.57 22.8339,14.57 C23.4789,14.57 24.0019,15.092 24.0019,15.739 C24.0019,19.077 18.9499,21.595 12.2509,21.595" id="Fill-9" fill="#004990"></path>
                        <path d="M12.2509,21.595 C5.5519,21.595 0.4999,19.077 0.4999,15.739 C0.4999,15.092 1.0229,14.57 1.6689,14.57 C2.3139,14.57 2.8379,15.092 2.8379,15.739 C2.8379,17.173 6.5049,19.258 12.2509,19.258 C17.9979,19.258 21.6649,17.173 21.6649,15.739 C21.6649,15.092 22.1889,14.57 22.8339,14.57 C23.4789,14.57 24.0019,15.092 24.0019,15.739 C24.0019,19.077 18.9499,21.595 12.2509,21.595 Z" id="Stroke-11" stroke="#004990"></path>
                        <path d="M40.1034,40.2484 L40.1034,55.4114 C40.1034,56.8464 43.7704,58.9294 49.5164,58.9294 C55.2624,58.9294 58.9294,56.8464 58.9294,55.4114 L58.9294,40.2484 C56.8214,41.6434 53.4534,42.5124 49.5164,42.5124 C45.5794,42.5124 42.2104,41.6434 40.1034,40.2484 M49.5164,61.2674 C42.8174,61.2674 37.7664,58.7494 37.7664,55.4114 L37.7664,36.6564 C37.7664,36.0114 38.2894,35.4874 38.9344,35.4874 C39.5804,35.4874 40.1034,36.0114 40.1034,36.6564 C40.1034,38.0914 43.7704,40.1754 49.5164,40.1754 C55.2624,40.1754 58.9294,38.0914 58.9294,36.6564 C58.9294,36.0114 59.4534,35.4874 60.0984,35.4874 C60.7434,35.4874 61.2664,36.0114 61.2664,36.6564 L61.2664,55.4114 C61.2664,58.7494 56.2144,61.2674 49.5164,61.2674" id="Fill-13" fill="#004990"></path>
                        <path d="M40.1034,40.2484 L40.1034,55.4114 C40.1034,56.8464 43.7704,58.9294 49.5164,58.9294 C55.2624,58.9294 58.9294,56.8464 58.9294,55.4114 L58.9294,40.2484 C56.8214,41.6434 53.4534,42.5124 49.5164,42.5124 C45.5794,42.5124 42.2104,41.6434 40.1034,40.2484 Z M49.5164,61.2674 C42.8174,61.2674 37.7664,58.7494 37.7664,55.4114 L37.7664,36.6564 C37.7664,36.0114 38.2894,35.4874 38.9344,35.4874 C39.5804,35.4874 40.1034,36.0114 40.1034,36.6564 C40.1034,38.0914 43.7704,40.1754 49.5164,40.1754 C55.2624,40.1754 58.9294,38.0914 58.9294,36.6564 C58.9294,36.0114 59.4534,35.4874 60.0984,35.4874 C60.7434,35.4874 61.2664,36.0114 61.2664,36.6564 L61.2664,55.4114 C61.2664,58.7494 56.2144,61.2674 49.5164,61.2674 Z" id="Stroke-15" stroke="#004990"></path>
                        <path d="M49.5165,33.1312 C43.7705,33.1312 40.1035,35.2202 40.1035,36.6562 C40.1035,38.0912 43.7705,40.1752 49.5165,40.1752 C55.2625,40.1752 58.9295,38.0912 58.9295,36.6562 C58.9295,35.2202 55.2625,33.1312 49.5165,33.1312 M49.5165,42.5122 C42.8175,42.5122 37.7665,39.9942 37.7665,36.6562 C37.7665,33.3142 42.8175,30.7942 49.5165,30.7942 C56.2145,30.7942 61.2665,33.3142 61.2665,36.6562 C61.2665,39.9942 56.2145,42.5122 49.5165,42.5122" id="Fill-17" fill="#004990"></path>
                        <path d="M49.5165,33.1312 C43.7705,33.1312 40.1035,35.2202 40.1035,36.6562 C40.1035,38.0912 43.7705,40.1752 49.5165,40.1752 C55.2625,40.1752 58.9295,38.0912 58.9295,36.6562 C58.9295,35.2202 55.2625,33.1312 49.5165,33.1312 Z M49.5165,42.5122 C42.8175,42.5122 37.7665,39.9942 37.7665,36.6562 C37.7665,33.3142 42.8175,30.7942 49.5165,30.7942 C56.2145,30.7942 61.2665,33.3142 61.2665,36.6562 C61.2665,39.9942 56.2145,42.5122 49.5165,42.5122 Z" id="Stroke-19" stroke="#004990"></path>
                        <path d="M49.5135,51.889 C42.8145,51.889 37.7635,49.371 37.7635,46.033 C37.7635,45.387 38.2855,44.864 38.9315,44.864 C39.5765,44.864 40.1005,45.387 40.1005,46.033 C40.1005,47.467 43.7675,49.552 49.5135,49.552 C55.2605,49.552 58.9275,47.467 58.9275,46.033 C58.9275,45.387 59.4515,44.864 60.0965,44.864 C60.7425,44.864 61.2645,45.387 61.2645,46.033 C61.2645,49.371 56.2135,51.889 49.5135,51.889" id="Fill-21" fill="#004990"></path>
                        <path d="M49.5135,51.889 C42.8145,51.889 37.7635,49.371 37.7635,46.033 C37.7635,45.387 38.2855,44.864 38.9315,44.864 C39.5765,44.864 40.1005,45.387 40.1005,46.033 C40.1005,47.467 43.7675,49.552 49.5135,49.552 C55.2605,49.552 58.9275,47.467 58.9275,46.033 C58.9275,45.387 59.4515,44.864 60.0965,44.864 C60.7425,44.864 61.2645,45.387 61.2645,46.033 C61.2645,49.371 56.2135,51.889 49.5135,51.889 Z" id="Stroke-23" stroke="#004990"></path>
                        <path d="M33.0887,50.6819 L15.7577,50.6819 C13.1807,50.6819 11.0837,48.5849 11.0837,46.0069 L11.0837,36.7259 C11.0837,36.0799 11.6067,35.5579 12.2517,35.5579 C12.8977,35.5579 13.4207,36.0799 13.4207,36.7259 L13.4207,46.0069 C13.4207,47.2959 14.4687,48.3449 15.7577,48.3449 L33.0887,48.3449 C33.7347,48.3449 34.2577,48.8679 34.2577,49.5129 C34.2577,50.1599 33.7347,50.6819 33.0887,50.6819" id="Fill-25" fill="#00A5BD"></path>
                        <path d="M33.0887,50.6819 L15.7577,50.6819 C13.1807,50.6819 11.0837,48.5849 11.0837,46.0069 L11.0837,36.7259 C11.0837,36.0799 11.6067,35.5579 12.2517,35.5579 C12.8977,35.5579 13.4207,36.0799 13.4207,36.7259 L13.4207,46.0069 C13.4207,47.2959 14.4687,48.3449 15.7577,48.3449 L33.0887,48.3449 C33.7347,48.3449 34.2577,48.8679 34.2577,49.5129 C34.2577,50.1599 33.7347,50.6819 33.0887,50.6819 Z" id="Stroke-27" stroke="#00A5BD"></path>
                        <path d="M49.5135,27.2884 C48.8685,27.2884 48.3455,26.7664 48.3455,26.1194 L48.3455,15.7584 C48.3455,14.4694 47.2965,13.4214 46.0085,13.4214 L28.6765,13.4214 C28.0315,13.4214 27.5075,12.8974 27.5075,12.2524 C27.5075,11.6054 28.0315,11.0834 28.6765,11.0834 L46.0085,11.0834 C48.5855,11.0834 50.6825,13.1804 50.6825,15.7584 L50.6825,26.1194 C50.6825,26.7664 50.1595,27.2884 49.5135,27.2884" id="Fill-29" fill="#00A5BD"></path>
                        <path d="M49.5135,27.2884 C48.8685,27.2884 48.3455,26.7664 48.3455,26.1194 L48.3455,15.7584 C48.3455,14.4694 47.2965,13.4214 46.0085,13.4214 L28.6765,13.4214 C28.0315,13.4214 27.5075,12.8974 27.5075,12.2524 C27.5075,11.6054 28.0315,11.0834 28.6765,11.0834 L46.0085,11.0834 C48.5855,11.0834 50.6825,13.1804 50.6825,15.7584 L50.6825,26.1194 C50.6825,26.7664 50.1595,27.2884 49.5135,27.2884 Z" id="Stroke-31" stroke="#00A5BD"></path>
                    </g>
                </g>
            </g>
        </g>
    </g>
</svg>