<?xml version="1.0" encoding="UTF-8"?>
<svg width="62px" height="51px" viewBox="0 0 62 51" version="1.1" xmlns="http://www.w3.org/2000/svg" xmlns:xlink="http://www.w3.org/1999/xlink">
    <!-- Generator: Sketch 53.2 (72643) - https://sketchapp.com -->
    <title>icon-foundation</title>
    <desc>Created with Sketch.</desc>
    <g id="Desktop" stroke="none" stroke-width="1" fill="none" fill-rule="evenodd">
        <g id="Solutions-Page" transform="translate(-199.000000, -3147.000000)">
            <g id="Robust,-high-quality-data" transform="translate(165.000000, 2908.000000)">
                <g id="info-1" transform="translate(0.000000, 165.000000)">
                    <g id="icon-foundation" transform="translate(35.000000, 74.000000)">
                        <path d="M2.8078,13.8778 L2.8078,46.2188 C2.8078,47.0028 3.4468,47.6428 4.2308,47.6428 L56.7688,47.6428 C57.5538,47.6428 58.1928,47.0028 58.1928,46.2188 L58.1928,13.8778 L2.8078,13.8778 Z M56.7688,49.9498 L4.2308,49.9498 C2.1738,49.9498 0.4998,48.2758 0.4998,46.2188 L0.4998,12.7238 C0.4998,12.0858 1.0158,11.5698 1.6538,11.5698 L59.3458,11.5698 C59.9838,11.5698 60.4998,12.0858 60.4998,12.7238 L60.4998,46.2188 C60.4998,48.2758 58.8268,49.9498 56.7688,49.9498 L56.7688,49.9498 Z" id="Fill-1" fill="#004990"></path>
                        <path d="M2.8078,13.8778 L2.8078,46.2188 C2.8078,47.0028 3.4468,47.6428 4.2308,47.6428 L56.7688,47.6428 C57.5538,47.6428 58.1928,47.0028 58.1928,46.2188 L58.1928,13.8778 L2.8078,13.8778 Z M56.7688,49.9498 L4.2308,49.9498 C2.1738,49.9498 0.4998,48.2758 0.4998,46.2188 L0.4998,12.7238 C0.4998,12.0858 1.0158,11.5698 1.6538,11.5698 L59.3458,11.5698 C59.9838,11.5698 60.4998,12.0858 60.4998,12.7238 L60.4998,46.2188 C60.4998,48.2758 58.8268,49.9498 56.7688,49.9498 Z" id="Stroke-3" stroke="#004990"></path>
                        <path d="M2.8078,11.5702 L58.1928,11.5702 L58.1928,4.2302 C58.1928,3.4472 57.5538,2.8072 56.7688,2.8072 L4.2308,2.8072 C3.4468,2.8072 2.8078,3.4472 2.8078,4.2302 L2.8078,11.5702 Z M59.3458,13.8782 L1.6538,13.8782 C1.0158,13.8782 0.4998,13.3612 0.4998,12.7232 L0.4998,4.2302 C0.4998,2.1742 2.1738,0.5002 4.2308,0.5002 L56.7688,0.5002 C58.8268,0.5002 60.4998,2.1742 60.4998,4.2302 L60.4998,12.7232 C60.4998,13.3612 59.9838,13.8782 59.3458,13.8782 L59.3458,13.8782 Z" id="Fill-5" fill="#004990"></path>
                        <path d="M2.8078,11.5702 L58.1928,11.5702 L58.1928,4.2302 C58.1928,3.4472 57.5538,2.8072 56.7688,2.8072 L4.2308,2.8072 C3.4468,2.8072 2.8078,3.4472 2.8078,4.2302 L2.8078,11.5702 Z M59.3458,13.8782 L1.6538,13.8782 C1.0158,13.8782 0.4998,13.3612 0.4998,12.7232 L0.4998,4.2302 C0.4998,2.1742 2.1738,0.5002 4.2308,0.5002 L56.7688,0.5002 C58.8268,0.5002 60.4998,2.1742 60.4998,4.2302 L60.4998,12.7232 C60.4998,13.3612 59.9838,13.8782 59.3458,13.8782 Z" id="Stroke-7" stroke="#004990"></path>
                        <path d="M17.8527,7.1893 C17.8527,8.1813 18.6567,8.9853 19.6497,8.9853 C20.6407,8.9853 21.4457,8.1813 21.4457,7.1893 C21.4457,6.1973 20.6407,5.3923 19.6497,5.3923 C18.6567,5.3923 17.8527,6.1973 17.8527,7.1893" id="Fill-9" fill="#00A5BD"></path>
                        <path d="M17.8527,7.1893 C17.8527,8.1813 18.6567,8.9853 19.6497,8.9853 C20.6407,8.9853 21.4457,8.1813 21.4457,7.1893 C21.4457,6.1973 20.6407,5.3923 19.6497,5.3923 C18.6567,5.3923 17.8527,6.1973 17.8527,7.1893 Z" id="Stroke-11" stroke="#00A5BD"></path>
                        <path d="M12.3635,7.1893 C12.3635,8.1813 13.1685,8.9853 14.1595,8.9853 C15.1515,8.9853 15.9565,8.1813 15.9565,7.1893 C15.9565,6.1973 15.1515,5.3923 14.1595,5.3923 C13.1685,5.3923 12.3635,6.1973 12.3635,7.1893" id="Fill-13" fill="#00A5BD"></path>
                        <path d="M12.3635,7.1893 C12.3635,8.1813 13.1685,8.9853 14.1595,8.9853 C15.1515,8.9853 15.9565,8.1813 15.9565,7.1893 C15.9565,6.1973 15.1515,5.3923 14.1595,5.3923 C13.1685,5.3923 12.3635,6.1973 12.3635,7.1893 Z" id="Stroke-15" stroke="#00A5BD"></path>
                        <path d="M6.8742,7.1893 C6.8742,8.1813 7.6782,8.9853 8.6712,8.9853 C9.6632,8.9853 10.4672,8.1813 10.4672,7.1893 C10.4672,6.1973 9.6632,5.3923 8.6712,5.3923 C7.6782,5.3923 6.8742,6.1973 6.8742,7.1893" id="Fill-17" fill="#00A5BD"></path>
                        <path d="M6.8742,7.1893 C6.8742,8.1813 7.6782,8.9853 8.6712,8.9853 C9.6632,8.9853 10.4672,8.1813 10.4672,7.1893 C10.4672,6.1973 9.6632,5.3923 8.6712,5.3923 C7.6782,5.3923 6.8742,6.1973 6.8742,7.1893 Z" id="Stroke-19" stroke="#00A5BD"></path>
                        <path d="M30.0168,49.9501 C29.3788,49.9501 28.8628,49.4331 28.8628,48.7961 L28.8628,42.4461 L24.7048,38.2871 C24.2528,37.8371 24.2528,37.1061 24.7048,36.6561 L29.3458,32.0131 L29.3458,12.7231 C29.3458,12.0861 29.8628,11.5701 30.4998,11.5701 C31.1378,11.5701 31.6538,12.0861 31.6538,12.7231 L31.6538,32.4911 C31.6538,32.7981 31.5328,33.0911 31.3158,33.3061 L27.1518,37.4711 L30.8318,41.1531 C31.0488,41.3691 31.1698,41.6621 31.1698,41.9691 L31.1698,48.7961 C31.1698,49.4331 30.6548,49.9501 30.0168,49.9501" id="Fill-21" fill="#004990"></path>
                        <path d="M30.0168,49.9501 C29.3788,49.9501 28.8628,49.4331 28.8628,48.7961 L28.8628,42.4461 L24.7048,38.2871 C24.2528,37.8371 24.2528,37.1061 24.7048,36.6561 L29.3458,32.0131 L29.3458,12.7231 C29.3458,12.0861 29.8628,11.5701 30.4998,11.5701 C31.1378,11.5701 31.6538,12.0861 31.6538,12.7231 L31.6538,32.4911 C31.6538,32.7981 31.5328,33.0911 31.3158,33.3061 L27.1518,37.4711 L30.8318,41.1531 C31.0488,41.3691 31.1698,41.6621 31.1698,41.9691 L31.1698,48.7961 C31.1698,49.4331 30.6548,49.9501 30.0168,49.9501 Z" id="Stroke-23" stroke="#004990"></path>
                        <path d="M52.4904,21.9598 L38.6304,21.9598 C37.9924,21.9598 37.4754,21.4438 37.4754,20.8058 C37.4754,20.1688 37.9924,19.6518 38.6304,19.6518 L52.4904,19.6518 C53.1294,19.6518 53.6444,20.1688 53.6444,20.8058 C53.6444,21.4438 53.1294,21.9598 52.4904,21.9598" id="Fill-25" fill="#00A5BD"></path>
                        <path d="M52.4904,21.9598 L38.6304,21.9598 C37.9924,21.9598 37.4754,21.4438 37.4754,20.8058 C37.4754,20.1688 37.9924,19.6518 38.6304,19.6518 L52.4904,19.6518 C53.1294,19.6518 53.6444,20.1688 53.6444,20.8058 C53.6444,21.4438 53.1294,21.9598 52.4904,21.9598 Z" id="Stroke-27" stroke="#00A5BD"></path>
                        <path d="M52.4904,28.5956 L38.6304,28.5956 C37.9924,28.5956 37.4754,28.0796 37.4754,27.4426 C37.4754,26.8036 37.9924,26.2876 38.6304,26.2876 L52.4904,26.2876 C53.1294,26.2876 53.6444,26.8036 53.6444,27.4426 C53.6444,28.0796 53.1294,28.5956 52.4904,28.5956" id="Fill-29" fill="#00A5BD"></path>
                        <path d="M52.4904,28.5956 L38.6304,28.5956 C37.9924,28.5956 37.4754,28.0796 37.4754,27.4426 C37.4754,26.8036 37.9924,26.2876 38.6304,26.2876 L52.4904,26.2876 C53.1294,26.2876 53.6444,26.8036 53.6444,27.4426 C53.6444,28.0796 53.1294,28.5956 52.4904,28.5956 Z" id="Stroke-31" stroke="#00A5BD"></path>
                        <path d="M52.4904,35.2313 L38.6304,35.2313 C37.9924,35.2313 37.4754,34.7153 37.4754,34.0783 C37.4754,33.4393 37.9924,32.9233 38.6304,32.9233 L52.4904,32.9233 C53.1294,32.9233 53.6444,33.4393 53.6444,34.0783 C53.6444,34.7153 53.1294,35.2313 52.4904,35.2313" id="Fill-33" fill="#00A5BD"></path>
                        <path d="M52.4904,35.2313 L38.6304,35.2313 C37.9924,35.2313 37.4754,34.7153 37.4754,34.0783 C37.4754,33.4393 37.9924,32.9233 38.6304,32.9233 L52.4904,32.9233 C53.1294,32.9233 53.6444,33.4393 53.6444,34.0783 C53.6444,34.7153 53.1294,35.2313 52.4904,35.2313 Z" id="Stroke-35" stroke="#00A5BD"></path>
                        <path d="M52.4904,41.8671 L38.6304,41.8671 C37.9924,41.8671 37.4754,41.3511 37.4754,40.7131 C37.4754,40.0761 37.9924,39.5591 38.6304,39.5591 L52.4904,39.5591 C53.1294,39.5591 53.6444,40.0761 53.6444,40.7131 C53.6444,41.3511 53.1294,41.8671 52.4904,41.8671" id="Fill-37" fill="#00A5BD"></path>
                        <path d="M52.4904,41.8671 L38.6304,41.8671 C37.9924,41.8671 37.4754,41.3511 37.4754,40.7131 C37.4754,40.0761 37.9924,39.5591 38.6304,39.5591 L52.4904,39.5591 C53.1294,39.5591 53.6444,40.0761 53.6444,40.7131 C53.6444,41.3511 53.1294,41.8671 52.4904,41.8671 Z" id="Stroke-39" stroke="#00A5BD"></path>
                        <path d="M22.3703,21.9598 L8.5103,21.9598 C7.8713,21.9598 7.3553,21.4438 7.3553,20.8058 C7.3553,20.1688 7.8713,19.6518 8.5103,19.6518 L22.3703,19.6518 C23.0083,19.6518 23.5233,20.1688 23.5233,20.8058 C23.5233,21.4438 23.0083,21.9598 22.3703,21.9598" id="Fill-41" fill="#00A5BD"></path>
                        <path d="M22.3703,21.9598 L8.5103,21.9598 C7.8713,21.9598 7.3553,21.4438 7.3553,20.8058 C7.3553,20.1688 7.8713,19.6518 8.5103,19.6518 L22.3703,19.6518 C23.0083,19.6518 23.5233,20.1688 23.5233,20.8058 C23.5233,21.4438 23.0083,21.9598 22.3703,21.9598 Z" id="Stroke-43" stroke="#00A5BD"></path>
                        <path d="M22.3703,28.5956 L8.5103,28.5956 C7.8713,28.5956 7.3553,28.0796 7.3553,27.4426 C7.3553,26.8036 7.8713,26.2876 8.5103,26.2876 L22.3703,26.2876 C23.0083,26.2876 23.5233,26.8036 23.5233,27.4426 C23.5233,28.0796 23.0083,28.5956 22.3703,28.5956" id="Fill-45" fill="#00A5BD"></path>
                        <path d="M22.3703,28.5956 L8.5103,28.5956 C7.8713,28.5956 7.3553,28.0796 7.3553,27.4426 C7.3553,26.8036 7.8713,26.2876 8.5103,26.2876 L22.3703,26.2876 C23.0083,26.2876 23.5233,26.8036 23.5233,27.4426 C23.5233,28.0796 23.0083,28.5956 22.3703,28.5956 Z" id="Stroke-47" stroke="#00A5BD"></path>
                        <path d="M17.7551,35.2313 L8.5101,35.2313 C7.8711,35.2313 7.3561,34.7153 7.3561,34.0783 C7.3561,33.4393 7.8711,32.9233 8.5101,32.9233 L17.7551,32.9233 C18.3931,32.9233 18.9081,33.4393 18.9081,34.0783 C18.9081,34.7153 18.3931,35.2313 17.7551,35.2313" id="Fill-49" fill="#00A5BD"></path>
                        <path d="M17.7551,35.2313 L8.5101,35.2313 C7.8711,35.2313 7.3561,34.7153 7.3561,34.0783 C7.3561,33.4393 7.8711,32.9233 8.5101,32.9233 L17.7551,32.9233 C18.3931,32.9233 18.9081,33.4393 18.9081,34.0783 C18.9081,34.7153 18.3931,35.2313 17.7551,35.2313 Z" id="Stroke-51" stroke="#00A5BD"></path>
                        <path d="M20.0627,41.8671 L8.5097,41.8671 C7.8717,41.8671 7.3557,41.3511 7.3557,40.7131 C7.3557,40.0761 7.8717,39.5591 8.5097,39.5591 L20.0627,39.5591 C20.7007,39.5591 21.2157,40.0761 21.2157,40.7131 C21.2157,41.3511 20.7007,41.8671 20.0627,41.8671" id="Fill-53" fill="#00A5BD"></path>
                        <path d="M20.0627,41.8671 L8.5097,41.8671 C7.8717,41.8671 7.3557,41.3511 7.3557,40.7131 C7.3557,40.0761 7.8717,39.5591 8.5097,39.5591 L20.0627,39.5591 C20.7007,39.5591 21.2157,40.0761 21.2157,40.7131 C21.2157,41.3511 20.7007,41.8671 20.0627,41.8671 Z" id="Stroke-55" stroke="#00A5BD"></path>
                    </g>
                </g>
            </g>
        </g>
    </g>
</svg>