<?xml version="1.0" encoding="UTF-8"?>
<svg width="155px" height="43px" viewBox="0 0 155 43" version="1.1" xmlns="http://www.w3.org/2000/svg" xmlns:xlink="http://www.w3.org/1999/xlink">
    <!-- Generator: Sketch 53.2 (72643) - https://sketchapp.com -->
    <title>HDMS logo</title>
    <desc>Created with Sketch.</desc>
    <defs>
        <polygon id="path-1" points="0.476971496 0.224751389 20.566342 0.224751389 20.566342 42.4305556 0.476971496 42.4305556"></polygon>
    </defs>
    <g id="Symbols" stroke="none" stroke-width="1" fill="none" fill-rule="evenodd">
        <g id="Footer" transform="translate(-173.000000, -45.000000)">
            <g id="HDMS-logo">
                <g transform="translate(173.000000, 45.000000)">
                    <path d="M20.5176781,24.8925708 C20.5176781,23.5015014 20.9285451,22.3767653 21.4347803,22.3767653 L26.1901247,22.3767653 C26.6957067,22.3767653 27.1072268,23.5015014 27.1072268,24.8925708 L27.1072268,25.6556681 C27.1072268,27.0460847 26.6957067,28.1721264 26.1901247,28.1721264 L21.4347803,28.1721264 C20.9285451,28.1721264 20.5176781,27.0460847 20.5176781,25.6556681 L20.5176781,24.8925708" id="Fill-1" fill="#7D8EBD"></path>
                    <path d="M14.4528504,38.708025 C14.4528504,37.4919 14.8134204,36.5062056 15.2556413,36.5062056 L19.4165677,36.5062056 C19.8574822,36.5062056 20.2180523,37.4919 20.2180523,38.708025 L20.2180523,39.3745111 C20.2180523,40.5912889 19.8574822,41.5782889 19.4165677,41.5782889 L15.2556413,41.5782889 C14.8134204,41.5782889 14.4528504,40.5912889 14.4528504,39.3745111 L14.4528504,38.708025" id="Fill-3" fill="#7D8EBD"></path>
                    <path d="M6.6290677,22.5504694 C6.6290677,21.4440111 6.95501781,20.5457889 7.35804632,20.5457889 L11.1427257,20.5457889 C11.5444477,20.5457889 11.8710511,21.4440111 11.8710511,22.5504694 L11.8710511,23.1569 C11.8710511,24.2633583 11.5444477,25.1615806 11.1427257,25.1615806 L7.35804632,25.1615806 C6.95501781,25.1615806 6.6290677,24.2633583 6.6290677,23.1569 L6.6290677,22.5504694" id="Fill-5" fill="#A8B2D4"></path>
                    <path d="M27.9504513,31.9182222 C27.9504513,30.5284583 28.3606651,29.4004583 28.8675534,29.4004583 L33.6215914,29.4004583 C34.1278266,29.4004583 34.5393468,30.5284583 34.5393468,31.9182222 L34.5393468,32.6774028 C34.5393468,34.0717361 34.1278266,35.2003889 33.6215914,35.2003889 L28.8675534,35.2003889 C28.3606651,35.2003889 27.9504513,34.0717361 27.9504513,32.6774028 L27.9504513,31.9182222" id="Fill-7" fill="#6A7FB3"></path>
                    <path d="M27.9504513,38.9445264 C27.9504513,37.5534569 28.3606651,36.4254569 28.8675534,36.4254569 L33.6215914,36.4254569 C34.1278266,36.4254569 34.5393468,37.5534569 34.5393468,38.9445264 L34.5393468,39.7050125 C34.5393468,41.0954292 34.1278266,42.2247347 33.6215914,42.2247347 L28.8675534,42.2247347 C28.3606651,42.2247347 27.9504513,41.0954292 27.9504513,39.7050125 L27.9504513,38.9445264" id="Fill-9" fill="#919FC8"></path>
                    <path d="M0,28.4261222 C0,27.3137889 0.327909739,26.4123028 0.732244656,26.4123028 L4.53456057,26.4123028 C4.93628266,26.4123028 5.26615202,27.3137889 5.26615202,28.4261222 L5.26615202,29.0345111 C5.26615202,30.1468444 4.93628266,31.0489833 4.53456057,31.0489833 L0.732244656,31.0489833 C0.327909739,31.0489833 0,30.1468444 0,29.0345111 L0,28.4261222" id="Fill-11" fill="#A8B2D4"></path>
                    <path d="M35.7994477,24.8925708 C35.7994477,23.5015014 36.2096615,22.3767653 36.7172031,22.3767653 L41.4718943,22.3767653 C41.9774762,22.3767653 42.3896496,23.5015014 42.3896496,24.8925708 L42.3896496,25.6556681 C42.3896496,27.0460847 41.9774762,28.1721264 41.4718943,28.1721264 L36.7172031,28.1721264 C36.2096615,28.1721264 35.7994477,27.0460847 35.7994477,25.6556681 L35.7994477,24.8925708" id="Fill-13" fill="#919FC8"></path>
                    <path d="M35.7994477,31.9182222 C35.7994477,30.5284583 36.2096615,29.4004583 36.7172031,29.4004583 L41.4718943,29.4004583 C41.9774762,29.4004583 42.3896496,30.5284583 42.3896496,31.9182222 L42.3896496,32.6774028 C42.3896496,34.0717361 41.9774762,35.2003889 41.4718943,35.2003889 L36.7172031,35.2003889 C36.2096615,35.2003889 35.7994477,34.0717361 35.7994477,32.6774028 L35.7994477,31.9182222" id="Fill-15" fill="#4667A2"></path>
                    <path d="M35.7994477,38.9445264 C35.7994477,37.5534569 36.2096615,36.4254569 36.7172031,36.4254569 L41.4718943,36.4254569 C41.9774762,36.4254569 42.3896496,37.5534569 42.3896496,38.9445264 L42.3896496,39.7050125 C42.3896496,41.0954292 41.9774762,42.2247347 41.4718943,42.2247347 L36.7172031,42.2247347 C36.2096615,42.2247347 35.7994477,41.0954292 35.7994477,39.7050125 L35.7994477,38.9445264" id="Fill-17" fill="#4667A2"></path>
                    <path d="M43.6504038,24.8925708 C43.6504038,23.5015014 44.0599644,22.3767653 44.5661995,22.3767653 L49.3215439,22.3767653 C49.8290855,22.3767653 50.2419121,23.5015014 50.2419121,24.8925708 L50.2419121,25.6556681 C50.2419121,27.0460847 49.8290855,28.1721264 49.3215439,28.1721264 L44.5661995,28.1721264 C44.0599644,28.1721264 43.6504038,27.0460847 43.6504038,25.6556681 L43.6504038,24.8925708" id="Fill-19" fill="#1F5393"></path>
                    <path d="M43.6504038,31.9182222 C43.6504038,30.5284583 44.0599644,29.4004583 44.5661995,29.4004583 L49.3215439,29.4004583 C49.8290855,29.4004583 50.2419121,30.5284583 50.2419121,31.9182222 L50.2419121,32.6774028 C50.2419121,34.0717361 49.8290855,35.2003889 49.3215439,35.2003889 L44.5661995,35.2003889 C44.0599644,35.2003889 43.6504038,34.0717361 43.6504038,32.6774028 L43.6504038,31.9182222" id="Fill-21" fill="#1F5393"></path>
                    <path d="M43.6504038,38.9445264 C43.6504038,37.5534569 44.0599644,36.4254569 44.5661995,36.4254569 L49.3215439,36.4254569 C49.8290855,36.4254569 50.2419121,37.5534569 50.2419121,38.9445264 L50.2419121,39.7050125 C50.2419121,41.0954292 49.8290855,42.2247347 49.3215439,42.2247347 L44.5661995,42.2247347 C44.0599644,42.2247347 43.6504038,41.0954292 43.6504038,39.7050125 L43.6504038,38.9445264" id="Fill-23" fill="#1F5393"></path>
                    <path d="M20.5176781,3.95459306 C20.5176781,2.56417639 20.9285451,1.43682917 21.4347803,1.43682917 L26.1901247,1.43682917 C26.6957067,1.43682917 27.1072268,2.56417639 27.1072268,3.95459306 L27.1072268,4.71638472 C27.1072268,6.10745417 26.6957067,7.23545417 26.1901247,7.23545417 L21.4347803,7.23545417 C20.9285451,7.23545417 20.5176781,6.10745417 20.5176781,4.71638472 L20.5176781,3.95459306" id="Fill-25" fill="#7D8EBD"></path>
                    <path d="M14.4528504,17.7697208 C14.4528504,16.5535958 14.8134204,15.5679014 15.2556413,15.5679014 L19.4165677,15.5679014 C19.8574822,15.5679014 20.2180523,16.5535958 20.2180523,17.7697208 L20.2180523,18.4368597 C20.2180523,19.6529847 19.8574822,20.6425958 19.4165677,20.6425958 L15.2556413,20.6425958 C14.8134204,20.6425958 14.4528504,19.6529847 14.4528504,18.4368597 L14.4528504,17.7697208" id="Fill-27" fill="#7D8EBD"></path>
                    <path d="M14.2841271,10.0642014 C14.2841271,8.95513194 14.6113836,8.05952083 15.0144121,8.05952083 L18.8010511,8.05952083 C19.2014667,8.05952083 19.5300297,8.95513194 19.5300297,10.0642014 L19.5300297,10.6719375 C19.5300297,11.7764375 19.2014667,12.6733542 18.8010511,12.6733542 L15.0144121,12.6733542 C14.6113836,12.6733542 14.2841271,11.7764375 14.2841271,10.6719375 L14.2841271,10.0642014" id="Fill-29" fill="#A8B2D4"></path>
                    <path d="M27.9504513,10.9808972 C27.9504513,9.59048056 28.3606651,8.46052222 28.8675534,8.46052222 L33.6215914,8.46052222 C34.1278266,8.46052222 34.5393468,9.59048056 34.5393468,10.9808972 L34.5393468,11.739425 C34.5393468,13.1331056 34.1278266,14.2611056 33.6215914,14.2611056 L28.8675534,14.2611056 C28.3606651,14.2611056 27.9504513,13.1331056 27.9504513,11.739425 L27.9504513,10.9808972" id="Fill-31" fill="#6A7FB3"></path>
                    <path d="M27.9504513,18.0081153 C27.9504513,16.6150875 28.3606651,15.4857819 28.8675534,15.4857819 L33.6215914,15.4857819 C34.1278266,15.4857819 34.5393468,16.6150875 34.5393468,18.0081153 L34.5393468,18.7659903 C34.5393468,20.1570597 34.1278266,21.2863653 33.6215914,21.2863653 L28.8675534,21.2863653 C28.3606651,21.2863653 27.9504513,20.1570597 27.9504513,18.7659903 L27.9504513,18.0081153" id="Fill-33" fill="#919FC8"></path>
                    <path d="M0,9.61287083 C0,8.49923194 0.327909739,7.59839861 0.732244656,7.59839861 L4.53456057,7.59839861 C4.93628266,7.59839861 5.26615202,8.49923194 5.26615202,9.61287083 L5.26615202,10.2186486 C5.26615202,11.3309819 4.93628266,12.2318153 4.53456057,12.2318153 L0.732244656,12.2318153 C0.327909739,12.2318153 0,11.3309819 0,10.2186486 L0,9.61287083" id="Fill-35" fill="#A8B2D4"></path>
                    <path d="M35.7994477,3.95459306 C35.7994477,2.56417639 36.2096615,1.43682917 36.7172031,1.43682917 L41.4718943,1.43682917 C41.9774762,1.43682917 42.3896496,2.56417639 42.3896496,3.95459306 L42.3896496,4.71638472 C42.3896496,6.10745417 41.9774762,7.23545417 41.4718943,7.23545417 L36.7172031,7.23545417 C36.2096615,7.23545417 35.7994477,6.10745417 35.7994477,4.71638472 L35.7994477,3.95459306" id="Fill-37" fill="#7D8EBD"></path>
                    <path d="M35.7994477,10.9808972 C35.7994477,9.59048056 36.2096615,8.46052222 36.7172031,8.46052222 L41.4718943,8.46052222 C41.9774762,8.46052222 42.3896496,9.59048056 42.3896496,10.9808972 L42.3896496,11.739425 C42.3896496,13.1331056 41.9774762,14.2611056 41.4718943,14.2611056 L36.7172031,14.2611056 C36.2096615,14.2611056 35.7994477,13.1331056 35.7994477,11.739425 L35.7994477,10.9808972" id="Fill-39" fill="#4667A2"></path>
                    <path d="M35.7994477,18.0081153 C35.7994477,16.6150875 36.2096615,15.4857819 36.7172031,15.4857819 L41.4718943,15.4857819 C41.9774762,15.4857819 42.3896496,16.6150875 42.3896496,18.0081153 L42.3896496,18.7659903 C42.3896496,20.1570597 41.9774762,21.2863653 41.4718943,21.2863653 L36.7172031,21.2863653 C36.2096615,21.2863653 35.7994477,20.1570597 35.7994477,18.7659903 L35.7994477,18.0081153" id="Fill-41" fill="#4667A2"></path>
                    <path d="M43.6504038,3.95459306 C43.6504038,2.56417639 44.0599644,1.43682917 44.5661995,1.43682917 L49.3215439,1.43682917 C49.8290855,1.43682917 50.2419121,2.56417639 50.2419121,3.95459306 L50.2419121,4.71638472 C50.2419121,6.10745417 49.8290855,7.23545417 49.3215439,7.23545417 L44.5661995,7.23545417 C44.0599644,7.23545417 43.6504038,6.10745417 43.6504038,4.71638472 L43.6504038,3.95459306" id="Fill-43" fill="#1F5393"></path>
                    <path d="M43.6504038,10.9808972 C43.6504038,9.59048056 44.0599644,8.46052222 44.5661995,8.46052222 L49.3215439,8.46052222 C49.8290855,8.46052222 50.2419121,9.59048056 50.2419121,10.9808972 L50.2419121,11.739425 C50.2419121,13.1331056 49.8290855,14.2611056 49.3215439,14.2611056 L44.5661995,14.2611056 C44.0599644,14.2611056 43.6504038,13.1331056 43.6504038,11.739425 L43.6504038,10.9808972" id="Fill-45" fill="#1F5393"></path>
                    <path d="M43.6504038,18.0081153 C43.6504038,16.6150875 44.0599644,15.4857819 44.5661995,15.4857819 L49.3215439,15.4857819 C49.8290855,15.4857819 50.2419121,16.6150875 50.2419121,18.0081153 L50.2419121,18.7659903 C50.2419121,20.1570597 49.8290855,21.2863653 49.3215439,21.2863653 L44.5661995,21.2863653 C44.0599644,21.2863653 43.6504038,20.1570597 43.6504038,18.7659903 L43.6504038,18.0081153" id="Fill-47" fill="#90C74B"></path>
                    <polygon id="Fill-49" fill="#1F5393" points="55.7962589 1.55419861 63.21538 1.55419861 63.21538 17.8664625 67.8956057 17.8664625 67.8956057 1.55419861 75.3147268 1.55419861 75.3147268 42.1621986 67.8956057 42.1621986 67.8956057 24.9380042 63.21538 24.9380042 63.21538 42.1621986 55.7962589 42.1621986"></polygon>
                    <path d="M85.2454276,35.8884167 C89.9256532,35.831625 90.1536223,34.1206944 90.1536223,21.8014722 C90.1536223,9.53904167 89.9256532,7.88555556 85.2454276,7.82811111 L85.2454276,35.8884167 Z M77.8263064,1.55426389 L84.2754157,1.55426389 C96.7170428,1.55426389 97.915677,9.53904167 97.915677,21.8582639 C97.915677,33.6076111 96.9456651,42.1622639 85.4740499,42.1622639 L77.8263064,42.1622639 L77.8263064,1.55426389 Z" id="Fill-51" fill="#1F5393"></path>
                    <polygon id="Fill-53" fill="#1F5393" points="100.597352 1.55419861 110.47057 1.55419861 113.781675 22.3712819 113.895333 22.3712819 117.376271 1.55419861 127.02152 1.55419861 127.02152 42.1621986 120.401271 42.1621986 120.401271 12.3909625 120.287613 12.3909625 115.265107 42.1621986 111.155784 42.1621986 106.19076 12.3909625 106.076449 12.3909625 106.076449 42.1621986 100.597352 42.1621986"></polygon>
                    <g id="Group-57" transform="translate(128.028504, 0.530708)">
                        <mask id="mask-2" fill="white">
                            <use xlink:href="#path-1"></use>
                        </mask>
                        <g id="Clip-56"></g>
                        <path d="M7.43950119,29.8824042 C7.43950119,32.1638625 7.43950119,36.1562514 10.6362945,36.1562514 C13.0897387,36.1562514 13.9460926,33.8747931 13.9460926,32.2213069 C13.9460926,24.9774319 0.476971496,23.3239458 0.476971496,11.2899875 C0.476971496,5.18716806 3.7867696,0.224751389 10.0653919,0.224751389 C16.7424703,0.224751389 19.3108789,5.30140417 19.482019,12.6014181 L12.8617696,12.6014181 C12.8617696,10.3199597 12.8617696,6.49859861 9.89425178,6.49859861 C8.12471496,6.49859861 7.09787411,7.98170972 7.09787411,10.2057236 C7.09787411,17.1075431 20.566342,19.4457931 20.566342,31.2519319 C20.566342,37.4683347 17.0279216,42.4307514 10.35019,42.4307514 C2.41764846,42.4307514 0.819251781,35.4721403 0.819251781,29.8824042 L7.43950119,29.8824042 Z" id="Fill-55" fill="#1F5393" mask="url(#mask-2)"></path>
                    </g>
                    <path d="M151.065861,3.78278194 L151.378094,3.78278194 C151.741277,3.78278194 152.035873,3.66136528 152.035873,3.3669625 C152.035873,3.10780972 151.845137,2.93482361 151.43035,2.93482361 C151.256597,2.93482361 151.135101,2.95244861 151.065861,2.97007361 L151.065861,3.78278194 Z M151.049531,5.39122639 L150.391099,5.39122639 L150.391099,2.55425417 C150.650422,2.50268472 151.014258,2.46743472 151.481954,2.46743472 C152.01889,2.46743472 152.259923,2.55425417 152.468296,2.67567083 C152.623759,2.79643472 152.744602,3.02099028 152.744602,3.29842083 C152.744602,3.60914306 152.502262,3.85132361 152.157369,3.95576806 L152.157369,3.99036528 C152.433676,4.09415694 152.589792,4.30174028 152.676015,4.68230972 C152.763545,5.11444861 152.813842,5.2880875 152.884388,5.39122639 L152.1737,5.39122639 C152.087476,5.2880875 152.035873,5.02828194 151.948996,4.69993472 C151.897393,4.38855972 151.724293,4.24951806 151.360457,4.24951806 L151.049531,4.24951806 L151.049531,5.39122639 Z M149.300243,3.90419861 C149.300243,5.16667083 150.235635,6.17064306 151.515267,6.17064306 C152.763545,6.17064306 153.679341,5.16667083 153.679341,3.92051806 C153.679341,2.65804583 152.763545,1.63710139 151.498937,1.63710139 C150.235635,1.63710139 149.300243,2.65804583 149.300243,3.90419861 L149.300243,3.90419861 Z M154.40636,3.90419861 C154.40636,5.51264306 153.144365,6.77511528 151.498937,6.77511528 C149.872452,6.77511528 148.574531,5.51264306 148.574531,3.90419861 C148.574531,2.32969861 149.872452,1.06657361 151.498937,1.06657361 C153.144365,1.06657361 154.40636,2.32969861 154.40636,3.90419861 L154.40636,3.90419861 Z" id="Fill-92" fill="#1F5393"></path>
                </g>
            </g>
        </g>
    </g>
</svg>