<svg xmlns="http://www.w3.org/2000/svg" xmlns:xlink="http://www.w3.org/1999/xlink" width="300" height="71">
    <defs>
        <path id="a" d="M.153.731h8.502V11H.153z"/>
        <path id="c" d="M0 70.797h300V0H0z"/>
    </defs>
    <g fill="none" fill-rule="evenodd">
        <path fill="#FFF"
              d="M16.782 66.877l-1.65-4.7-1.666 4.7h3.316zm-2.329-6.07c.08-.04.19-.071.332-.095.142-.024.272-.037.39-.037.433 0 .721.2.87.604l3.404 9.297h-1.342l-.987-2.652h-3.978l-.958 2.652h-1.298l3.567-9.768zM26.727 62.709c-.334-.363-.686-.63-1.053-.797a2.958 2.958 0 0 0-1.23-.25c-.985 0-1.735.35-2.255 1.047-.52.697-.78 1.685-.78 2.962 0 1.274.27 2.267.81 2.968.54.702 1.32 1.053 2.341 1.053.434 0 .853-.1 1.263-.294a3.193 3.193 0 0 0 1.05-.812c.14.108.261.243.37.405.109.163.162.294.162.392 0 .157-.07.303-.206.442-.295.295-.689.53-1.18.706a4.625 4.625 0 0 1-1.59.266c-1.404 0-2.48-.447-3.226-1.341-.747-.894-1.122-2.152-1.122-3.772 0-1.621.381-2.884 1.143-3.794.762-.908 1.835-1.362 3.22-1.362.5 0 .98.076 1.436.229.456.152.822.336 1.09.55.271.217.405.423.405.62s-.128.457-.381.782h-.267zM35.065 62.709c-.334-.363-.686-.63-1.054-.797a2.955 2.955 0 0 0-1.23-.25c-.983 0-1.734.35-2.253 1.047-.52.697-.78 1.685-.78 2.962 0 1.274.268 2.267.808 2.968.54.702 1.321 1.053 2.342 1.053.435 0 .853-.1 1.262-.294a3.182 3.182 0 0 0 1.051-.812c.14.108.261.243.371.405.108.163.161.294.161.392 0 .157-.069.303-.206.442-.294.295-.689.53-1.18.706a4.629 4.629 0 0 1-1.589.266c-1.406 0-2.48-.447-3.227-1.341-.747-.894-1.12-2.152-1.12-3.772 0-1.621.38-2.884 1.141-3.794.762-.908 1.835-1.362 3.22-1.362.5 0 .98.076 1.435.229.456.152.822.336 1.092.55.27.217.405.423.405.62s-.128.457-.383.782h-.266zM37.452 60.718h5.687c.02.1.031.201.031.31 0 .532-.302.794-.9.794h-3.537v3.037h3.345v1.135h-3.345v3.478h3.743c.295 0 .521.068.678.205.157.137.236.334.236.588 0 .1-.005.203-.015.31h-5.923v-9.857zM44.951 60.703c.157-.018.281-.028.37-.028.61 0 .912.309.912.927v7.854h3.418c.285 0 .504.068.657.205.151.14.228.33.228.576 0 .109-.004.22-.016.339h-5.569v-9.873zM52.009 60.718h5.687c.019.1.03.201.03.31 0 .532-.301.794-.9.794H53.29v3.037h3.345v1.135H53.29v3.478h3.743c.294 0 .52.068.677.205.157.137.237.334.237.588 0 .1-.006.203-.015.31h-5.923v-9.857zM61.85 65.449c1.623 0 2.433-.648 2.433-1.945 0-.638-.182-1.099-.547-1.377-.363-.282-.988-.421-1.87-.421-.46 0-.815.019-1.061.059v3.684h1.045zm-2.326-4.701c.608-.087 1.379-.131 2.313-.131 1.315 0 2.276.224 2.879.668.605.447.906 1.162.906 2.145 0 .5-.09.95-.272 1.348a2.614 2.614 0 0 1-.767.987 2.842 2.842 0 0 1-1.126.538l2.697 4.273c-.166.088-.4.133-.694.133-.44 0-.79-.194-1.045-.576l-2.3-3.595h-1.31v4.038h-1.281v-9.828zM72.77 66.877l-1.651-4.7-1.665 4.7h3.316zm-2.33-6.07c.08-.04.19-.071.332-.095.142-.024.272-.037.39-.037.433 0 .721.2.87.604l3.404 9.297h-1.342l-.986-2.652h-3.979l-.958 2.652h-1.297l3.567-9.768zM77.572 61.839H74.45a2.053 2.053 0 0 1-.044-.412c0-.208.084-.376.25-.51.168-.132.383-.198.648-.198h6.763c.02.138.03.25.03.339a.713.713 0 0 1-.243.566c-.16.145-.38.215-.655.215H78.87v8.737h-1.298v-8.737zM83.392 60.718h5.687c.02.1.03.201.03.31 0 .532-.3.794-.898.794h-3.537v3.037h3.345v1.135h-3.345v3.478h3.743c.294 0 .52.068.677.205.157.137.237.334.237.588 0 .1-.006.203-.015.31h-5.924v-9.857zM96.356 69.484c1.17 0 2.057-.334 2.661-1.007.605-.673.905-1.649.905-2.927 0-1.305-.29-2.266-.87-2.879-.577-.614-1.47-.92-2.68-.92-.48 0-.895.023-1.238.072v7.661h1.222zm-2.503-8.722a22.857 22.857 0 0 1 2.49-.145c1.63 0 2.856.407 3.674 1.221.821.815 1.232 2.028 1.232 3.64 0 .943-.156 1.777-.465 2.505a4.151 4.151 0 0 1-1.362 1.754c-.786.56-1.877.84-3.27.84h-2.299v-9.815zM103.163 60.703c.157-.018.281-.028.37-.028.294 0 .523.082.684.243.162.162.244.389.244.684v8.974h-1.298v-9.873zM111.385 62.31a3.08 3.08 0 0 0-.914-.472 3.394 3.394 0 0 0-1.074-.176c-.591 0-1.042.13-1.357.391-.314.26-.471.62-.471 1.082 0 .266.062.498.183.7.124.202.328.383.613.544.284.162.742.341 1.37.538.893.286 1.548.663 1.96 1.127.412.467.618 1.05.618 1.746 0 .935-.297 1.667-.891 2.203-.595.536-1.407.803-2.44.803a6.19 6.19 0 0 1-1.508-.176c-.468-.118-.833-.275-1.1-.472-.244-.157-.366-.339-.366-.544 0-.1.042-.229.124-.393a3.72 3.72 0 0 1 .316-.493c.375.306.78.54 1.218.708.436.166.876.25 1.317.25.649 0 1.144-.15 1.488-.449.345-.299.516-.715.516-1.244 0-.325-.058-.604-.175-.84a1.619 1.619 0 0 0-.576-.612c-.266-.172-.664-.34-1.193-.509-.737-.215-1.295-.442-1.674-.684a2.417 2.417 0 0 1-.845-.877c-.188-.345-.282-.753-.282-1.223 0-.57.133-1.057.399-1.459a2.562 2.562 0 0 1 1.11-.928c.48-.217 1.027-.323 1.646-.323.392 0 .795.05 1.207.146.414.1.757.231 1.03.4.198.116.34.231.428.343a.581.581 0 0 1 .133.362c0 .208-.162.471-.485.797a3.015 3.015 0 0 0-.325-.266M120.46 62.709c-.334-.363-.686-.63-1.054-.797a2.958 2.958 0 0 0-1.23-.25c-.983 0-1.734.35-2.253 1.047-.521.697-.782 1.685-.782 2.962 0 1.274.27 2.267.81 2.968.54.702 1.32 1.053 2.342 1.053.434 0 .853-.1 1.262-.294a3.193 3.193 0 0 0 1.05-.812c.14.108.262.243.37.405.109.163.163.294.163.392 0 .157-.07.303-.206.442-.294.295-.69.53-1.18.706a4.63 4.63 0 0 1-1.59.266c-1.405 0-2.481-.447-3.226-1.341-.747-.894-1.121-2.152-1.121-3.772 0-1.621.38-2.884 1.142-3.794.762-.908 1.835-1.362 3.219-1.362.5 0 .98.076 1.436.229.456.152.822.336 1.092.55.27.217.404.423.404.62s-.127.457-.382.782h-.266z"/>
        <g transform="translate(122 59.797)">
            <mask id="b" fill="#fff">
                <use xlink:href="#a"/>
            </mask>
            <path fill="#FFF"
                  d="M7.314 5.813c0-1.276-.243-2.253-.73-2.933-.486-.676-1.196-1.015-2.127-1.015-.963 0-1.697.336-2.197 1.01-.5.671-.753 1.653-.753 2.938 0 1.298.248 2.296.745 2.998.498.703 1.217 1.053 2.16 1.053.943 0 1.663-.352 2.158-1.06.496-.706.744-1.705.744-2.99m1.341-.016c0 1.612-.374 2.882-1.119 3.81C6.787 10.535 5.727 11 4.352 11c-.903 0-1.667-.208-2.29-.626C1.436 9.955.962 9.355.64 8.57.315 7.784.153 6.865.153 5.813c0-1.03.178-1.935.531-2.71.353-.776.855-1.364 1.503-1.768C2.834.932 3.602.731 4.485.731c.894 0 1.65.204 2.268.611.62.408 1.09.992 1.415 1.753.324.762.487 1.662.487 2.703"
                  mask="url(#b)"/>
        </g>
        <path fill="#FFF"
              d="M131.317 60.748c.146-.05.372-.073.678-.073.491 0 .821.274.987.825l2.475 7.794 2.607-7.794c.177-.551.516-.825 1.02-.825.156 0 .341.024.558.073l-3.537 9.9h-1.342l-3.446-9.9zM140.922 60.718h5.687c.02.1.03.201.03.31 0 .532-.3.794-.898.794h-3.537v3.037h3.345v1.135h-3.345v3.478h3.743c.294 0 .52.068.677.205.157.137.237.334.237.588 0 .1-.006.203-.015.31h-5.924v-9.857zM150.764 65.449c1.622 0 2.433-.648 2.433-1.945 0-.638-.182-1.099-.547-1.377-.364-.282-.988-.421-1.87-.421-.461 0-.815.019-1.061.059v3.684h1.045zm-2.326-4.701c.608-.087 1.379-.131 2.312-.131 1.316 0 2.277.224 2.88.668.605.447.905 1.162.905 2.145 0 .5-.09.95-.271 1.348a2.614 2.614 0 0 1-.767.987 2.842 2.842 0 0 1-1.126.538l2.696 4.273c-.166.088-.4.133-.693.133-.44 0-.79-.194-1.045-.576l-2.3-3.595h-1.31v4.038h-1.281v-9.828zM158.308 66.525l-3.168-5.702c.187-.109.443-.162.766-.162.226 0 .408.047.545.14.137.092.265.247.382.462l2.139 4.053 2.136-3.934c.138-.245.283-.424.44-.538a.918.918 0 0 1 .547-.17c.186 0 .412.04.678.118l-3.168 5.702v4.082h-1.297v-4.05zM22.384 26.463c0-1.52.449-2.747 1-2.747h5.188c.552 0 1 1.228 1 2.747v.833c0 1.518-.448 2.747-1 2.747h-5.187c-.552 0-1.001-1.23-1.001-2.747v-.833M15.768 41.545c0-1.328.394-2.404.875-2.404h4.54c.48 0 .875 1.076.875 2.404v.727c0 1.329-.394 2.407-.875 2.407h-4.54c-.481 0-.875-1.078-.875-2.407v-.727M7.232 23.905c0-1.208.355-2.188.795-2.188h4.13c.437 0 .794.98.794 2.188v.662c0 1.208-.357 2.189-.795 2.189H8.027c-.44 0-.795-.981-.795-2.189v-.662M30.493 34.132c0-1.517.447-2.748 1.001-2.748h5.186c.552 0 1.001 1.23 1.001 2.748v.829c0 1.523-.449 2.755-1 2.755h-5.187c-.554 0-1-1.232-1-2.755v-.83M30.493 41.803c0-1.52.447-2.75 1.001-2.75h5.186c.552 0 1.001 1.23 1.001 2.75v.83c0 1.517-.449 2.75-1 2.75h-5.187c-.554 0-1-1.233-1-2.75v-.83M0 30.32c0-1.215.358-2.199.799-2.199h4.148c.438 0 .798.984.798 2.199v.663c0 1.215-.36 2.199-.798 2.199H.799c-.441 0-.799-.984-.799-2.199v-.663M39.056 26.463c0-1.52.448-2.747 1.002-2.747h5.186c.552 0 1.002 1.228 1.002 2.747v.833c0 1.518-.45 2.747-1.002 2.747h-5.186c-.554 0-1.002-1.23-1.002-2.747v-.833M39.056 34.132c0-1.517.448-2.748 1.002-2.748h5.186c.552 0 1.002 1.23 1.002 2.748v.829c0 1.523-.45 2.755-1.002 2.755h-5.186c-.554 0-1.002-1.232-1.002-2.755v-.83M39.056 41.803c0-1.52.448-2.75 1.002-2.75h5.186c.552 0 1.002 1.23 1.002 2.75v.83c0 1.517-.45 2.75-1.002 2.75h-5.186c-.554 0-1.002-1.233-1.002-2.75v-.83M47.621 26.463c0-1.52.446-2.747 1-2.747h5.187c.554 0 1.004 1.228 1.004 2.747v.833c0 1.518-.45 2.747-1.004 2.747H48.62c-.553 0-.999-1.23-.999-2.747v-.833M47.621 34.132c0-1.517.446-2.748 1-2.748h5.187c.554 0 1.004 1.23 1.004 2.748v.829c0 1.523-.45 2.755-1.004 2.755H48.62c-.553 0-.999-1.232-.999-2.755v-.83M47.621 41.803c0-1.52.446-2.75 1-2.75h5.187c.554 0 1.004 1.23 1.004 2.75v.83c0 1.517-.45 2.75-1.004 2.75H48.62c-.553 0-.999-1.233-.999-2.75v-.83M22.384 3.604c0-1.518.449-2.749 1-2.749h5.188c.552 0 1 1.231 1 2.75v.831c0 1.52-.448 2.75-1 2.75h-5.187c-.552 0-1.001-1.23-1.001-2.75v-.832M15.768 18.686c0-1.327.394-2.403.875-2.403h4.54c.48 0 .875 1.076.875 2.403v.73c0 1.327-.394 2.407-.875 2.407h-4.54c-.481 0-.875-1.08-.875-2.408v-.729M15.584 10.274c0-1.21.356-2.188.796-2.188h4.132c.436 0 .795.978.795 2.188v.663c0 1.206-.359 2.186-.795 2.186H16.38c-.44 0-.796-.98-.796-2.186v-.663M30.493 11.275c0-1.518.447-2.752 1.001-2.752h5.186c.552 0 1.001 1.234 1.001 2.752v.828c0 1.522-.449 2.753-1 2.753h-5.187c-.554 0-1-1.23-1-2.753v-.828M30.493 18.947c0-1.521.447-2.754 1.001-2.754h5.186c.552 0 1.001 1.233 1.001 2.754v.827c0 1.519-.449 2.751-1 2.751h-5.187c-.554 0-1-1.232-1-2.751v-.827M0 9.782c0-1.216.358-2.2.799-2.2h4.148c.438 0 .798.984.798 2.2v.661c0 1.215-.36 2.197-.798 2.197H.799c-.441 0-.799-.982-.799-2.197v-.661M39.056 3.604c0-1.518.448-2.749 1.002-2.749h5.186c.552 0 1.002 1.231 1.002 2.75v.831c0 1.52-.45 2.75-1.002 2.75h-5.186c-.554 0-1.002-1.23-1.002-2.75v-.832M39.056 11.275c0-1.518.448-2.752 1.002-2.752h5.186c.552 0 1.002 1.234 1.002 2.752v.828c0 1.522-.45 2.753-1.002 2.753h-5.186c-.554 0-1.002-1.23-1.002-2.753v-.828M39.056 18.947c0-1.521.448-2.754 1.002-2.754h5.186c.552 0 1.002 1.233 1.002 2.754v.827c0 1.519-.45 2.751-1.002 2.751h-5.186c-.554 0-1.002-1.232-1.002-2.751v-.827M47.621 3.604c0-1.518.446-2.749 1-2.749h5.187c.554 0 1.004 1.231 1.004 2.75v.831c0 1.52-.45 2.75-1.004 2.75H48.62c-.553 0-.999-1.23-.999-2.75v-.832M47.621 11.275c0-1.518.446-2.752 1-2.752h5.187c.554 0 1.004 1.234 1.004 2.752v.828c0 1.522-.45 2.753-1.004 2.753H48.62c-.553 0-.999-1.23-.999-2.753v-.828M47.621 18.947c0-1.521.446-2.754 1-2.754h5.187c.554 0 1.004 1.233 1.004 2.754v.827c0 1.519-.45 2.751-1.004 2.751H48.62c-.553 0-.999-1.232-.999-2.751v-.827M60.872.984h8.094v17.808h5.105V.984h8.095v44.331h-8.095V26.511h-5.105v18.804h-8.094zM93 38.467c5.105-.063 5.354-1.93 5.354-15.38 0-13.386-.249-15.191-5.354-15.253v30.633zM84.905.984h7.036c13.574 0 14.881 8.716 14.881 22.165 0 12.828-1.058 22.166-13.573 22.166h-8.344V.986zM109.748.984h10.771l3.613 22.726h.124L128.054.984h10.522v44.331h-7.223V12.814h-.124l-5.479 32.501h-4.482l-5.417-32.501h-.125v32.501h-5.978zM147.791 32.489c0 2.49 0 6.85 3.487 6.85 2.677 0 3.612-2.492 3.612-4.296 0-7.908-14.695-9.714-14.695-22.852 0-6.662 3.611-12.079 10.46-12.079 7.285 0 10.087 5.542 10.274 13.512h-7.223c0-2.49 0-6.662-3.237-6.662-1.931 0-3.051 1.619-3.051 4.047 0 7.534 14.693 10.086 14.693 22.975 0 6.786-3.86 12.203-11.144 12.203-8.655 0-10.399-7.596-10.399-13.698h7.223zM178.158.668v4.799h4.651V.668h2.817v12.488h-2.817V7.931h-4.651v5.225h-2.835V.668zM193.481 7.597c0-.686-.297-1.835-1.594-1.835-1.186 0-1.668 1.075-1.74 1.835h3.334zm-3.317 1.927c.092 1.167 1.242 1.722 2.557 1.722.964 0 1.741-.128 2.501-.37l.371 1.908c-.926.372-2.056.556-3.279.556-3.076 0-4.836-1.778-4.836-4.613 0-2.298 1.427-4.836 4.576-4.836 2.928 0 4.04 2.28 4.04 4.521 0 .482-.056.908-.093 1.112h-5.837zM202.597 8.876c-1.482-.02-2.631.334-2.631 1.427 0 .722.482 1.074 1.11 1.074.706 0 1.28-.463 1.465-1.037.037-.15.056-.316.056-.482v-.982zm.334 4.28l-.167-.908h-.056c-.592.723-1.52 1.112-2.593 1.112-1.835 0-2.928-1.335-2.928-2.78 0-2.352 2.112-3.483 5.317-3.465v-.13c0-.481-.26-1.167-1.648-1.167-.927 0-1.91.316-2.502.686l-.52-1.815c.63-.353 1.872-.797 3.522-.797 3.02 0 3.983 1.778 3.983 3.909v3.15c0 .87.037 1.704.13 2.205h-2.538z"/>
        <mask id="d" fill="#fff">
            <use xlink:href="#c"/>
        </mask>
        <path fill="#FFF"
              d="M207.562 13.156h2.816V0h-2.816zM215.807 1.5v2.596h2.02V6.17h-2.02V9.45c0 1.094.26 1.594 1.112 1.594.353 0 .63-.037.834-.074l.019 2.13c-.371.149-1.037.24-1.834.24-.908 0-1.668-.314-2.112-.776-.52-.54-.78-1.41-.78-2.687V6.17h-1.203V4.096h1.203V2.13l2.76-.63zM219.457 0h2.816v5.17h.038a3.365 3.365 0 0 1 1.112-.926c.407-.223.944-.352 1.463-.352 1.798 0 3.169 1.24 3.169 3.964v5.3h-2.817V8.172c0-1.186-.408-2.001-1.464-2.001-.741 0-1.204.48-1.408.98-.074.187-.093.428-.093.632v5.373h-2.816V0zM236.984 11.025c.241.056.63.056.982.056 2.557.018 4.225-1.39 4.225-4.373.02-2.594-1.5-3.965-3.929-3.965-.629 0-1.037.054-1.278.11v8.172zM234.15.835c1.038-.167 2.391-.26 3.817-.26 2.372 0 3.91.426 5.114 1.334 1.298.963 2.113 2.501 2.113 4.706 0 2.39-.87 4.04-2.075 5.058-1.317 1.093-3.318 1.613-5.763 1.613-1.464 0-2.502-.093-3.206-.186V.834zM251.772 8.876c-1.482-.02-2.632.334-2.632 1.427 0 .722.482 1.074 1.11 1.074.706 0 1.28-.463 1.465-1.037.036-.15.056-.316.056-.482v-.982zm.333 4.28l-.167-.908h-.056c-.593.723-1.52 1.112-2.594 1.112-1.835 0-2.928-1.335-2.928-2.78 0-2.352 2.112-3.483 5.317-3.465v-.13c0-.481-.258-1.167-1.647-1.167-.928 0-1.91.316-2.502.686l-.52-1.815c.63-.353 1.871-.797 3.522-.797 3.02 0 3.982 1.778 3.982 3.909v3.15c0 .87.037 1.704.13 2.205h-2.537zM259.886 1.5v2.596h2.02V6.17h-2.02V9.45c0 1.094.26 1.594 1.112 1.594.352 0 .63-.037.833-.074l.02 2.13c-.371.149-1.038.24-1.835.24-.908 0-1.668-.314-2.112-.776-.52-.54-.78-1.41-.78-2.687V6.17h-1.203V4.096h1.204V2.13l2.76-.63zM268.353 8.876c-1.481-.02-2.63.334-2.63 1.427 0 .722.481 1.074 1.11 1.074.705 0 1.28-.463 1.464-1.037.037-.15.056-.316.056-.482v-.982zm.334 4.28l-.168-.908h-.055c-.592.723-1.519 1.112-2.594 1.112-1.834 0-2.928-1.335-2.928-2.78 0-2.352 2.113-3.483 5.318-3.465v-.13c0-.481-.26-1.167-1.649-1.167-.925 0-1.907.316-2.501.686l-.52-1.815c.63-.353 1.873-.797 3.523-.797 3.019 0 3.983 1.778 3.983 3.909v3.15c0 .87.036 1.704.128 2.205h-2.537zM178.621 19.715c0 .63.297 1.186.853 1.797.908-.63 1.372-1.111 1.372-1.834 0-.593-.353-1.242-1.094-1.242-.723 0-1.13.63-1.13 1.279zm2.521 7.188c-.779-.777-1.798-1.908-2.818-3.056-.517.37-.98.907-.98 1.722 0 1.056.796 1.964 2.074 1.964.741 0 1.352-.277 1.724-.63zm2.13 2.465c-.259-.278-.518-.556-.815-.89-.815.63-1.946 1.094-3.428 1.094-3.02 0-4.354-1.797-4.354-3.54 0-1.648.944-2.834 2.371-3.575v-.075c-.537-.592-.945-1.52-.945-2.408 0-1.574 1.242-3.298 3.744-3.298 1.926 0 3.39 1.13 3.39 2.928 0 1.259-.74 2.334-2.465 3.205l-.018.074c.723.797 1.482 1.705 2.094 2.335.501-.778.89-1.928 1.056-3.04h2.521c-.335 1.89-.964 3.503-2.076 4.744.704.797 1.426 1.612 2.205 2.446h-3.28zM202.19 24.588c-.056-1.501-.11-3.316-.11-5.133h-.057a67.886 67.886 0 0 1-1.39 4.836l-1.519 4.873h-2.206l-1.334-4.836a57.574 57.574 0 0 1-1.13-4.873h-.037c-.073 1.687-.129 3.612-.223 5.17l-.222 4.743h-2.612l.797-12.488h3.761l1.222 4.169c.39 1.444.78 3.002 1.057 4.465h.056a104.76 104.76 0 0 1 1.185-4.484l1.334-4.15h3.688l.685 12.488h-2.76l-.186-4.78zM212.028 25.088c-1.482-.02-2.632.333-2.632 1.427 0 .722.483 1.074 1.112 1.074.705 0 1.28-.463 1.464-1.037.037-.15.056-.316.056-.482v-.982zm.333 4.28l-.167-.908h-.056c-.592.723-1.518 1.112-2.593 1.112-1.834 0-2.928-1.335-2.928-2.78 0-2.352 2.112-3.482 5.317-3.465v-.13c0-.48-.259-1.166-1.648-1.166-.926 0-1.909.315-2.502.686l-.519-1.816c.63-.352 1.872-.797 3.522-.797 3.02 0 3.983 1.778 3.983 3.909v3.15c0 .87.036 1.704.13 2.205h-2.539zM216.993 23.198c0-1.13-.037-2.094-.074-2.891h2.445l.13 1.242h.056c.371-.575 1.297-1.446 2.797-1.446 1.853 0 3.244 1.224 3.244 3.892v5.373h-2.817v-5.022c0-1.168-.408-1.964-1.427-1.964-.778 0-1.242.538-1.426 1.056-.074.167-.112.446-.112.704v5.226h-2.816v-6.17zM232.669 25.088c-1.482-.02-2.632.333-2.632 1.427 0 .722.482 1.074 1.11 1.074a1.54 1.54 0 0 0 1.466-1.037c.036-.15.056-.316.056-.482v-.982zm.333 4.28l-.167-.908h-.056c-.592.723-1.52 1.112-2.593 1.112-1.834 0-2.928-1.335-2.928-2.78 0-2.352 2.112-3.482 5.318-3.465v-.13c0-.48-.26-1.166-1.65-1.166-.926 0-1.907.315-2.5.686l-.52-1.816c.63-.352 1.87-.797 3.52-.797 3.02 0 3.984 1.778 3.984 3.909v3.15c0 .87.037 1.704.13 2.205h-2.538zM243.397 23.995a2.24 2.24 0 0 0-.056-.52c-.204-.741-.742-1.241-1.52-1.241-1.02 0-1.853.927-1.853 2.575 0 1.353.667 2.41 1.853 2.41.722 0 1.298-.483 1.482-1.15.075-.203.094-.5.094-.74v-1.334zm2.89-3.688a39.799 39.799 0 0 0-.076 2.687v5.059c0 1.74-.35 3.169-1.37 4.076-1.002.852-2.353 1.112-3.686 1.112-1.188 0-2.447-.241-3.262-.705l.556-2.131c.575.334 1.575.686 2.63.686 1.335 0 2.355-.722 2.355-2.391v-.593h-.037c-.538.76-1.41 1.187-2.446 1.187-2.243 0-3.835-1.817-3.835-4.43 0-2.907 1.887-4.761 4.111-4.761 1.243 0 2.02.538 2.483 1.28h.038l.091-1.076h2.447zM253.957 23.81c0-.688-.297-1.835-1.594-1.835-1.185 0-1.667 1.074-1.741 1.834h3.335zm-3.316 1.926c.091 1.167 1.241 1.723 2.556 1.723.964 0 1.741-.13 2.502-.37l.37 1.907c-.926.372-2.056.556-3.279.556-3.076 0-4.836-1.778-4.836-4.613 0-2.298 1.427-4.836 4.576-4.836 2.928 0 4.039 2.278 4.039 4.521 0 .482-.055.908-.092 1.112h-5.836zM258.255 23.198c0-1.13-.037-2.094-.073-2.891h2.37l.13 1.224h.056c.389-.575 1.186-1.428 2.743-1.428 1.167 0 2.093.593 2.482 1.538H266a4.032 4.032 0 0 1 1.168-1.092c.5-.297 1.056-.446 1.723-.446 1.742 0 3.057 1.224 3.057 3.928v5.337h-2.743v-4.929c0-1.316-.426-2.075-1.333-2.075-.648 0-1.112.444-1.297.981a2.34 2.34 0 0 0-.111.723v5.3h-2.742v-5.077c0-1.149-.408-1.927-1.298-1.927-.723 0-1.148.556-1.315 1.019-.093.222-.111.481-.111.704v5.281h-2.743v-6.17zM279.674 23.81c0-.688-.296-1.835-1.594-1.835-1.185 0-1.667 1.074-1.741 1.834h3.335zm-3.316 1.926c.092 1.167 1.24 1.723 2.557 1.723.963 0 1.74-.13 2.5-.37l.37 1.907c-.924.372-2.055.556-3.278.556-3.076 0-4.836-1.778-4.836-4.613 0-2.298 1.427-4.836 4.576-4.836 2.928 0 4.04 2.278 4.04 4.521 0 .482-.055.908-.092 1.112h-5.837zM283.972 23.198c0-1.13-.036-2.094-.073-2.891h2.445l.13 1.242h.056c.37-.575 1.296-1.446 2.797-1.446 1.853 0 3.243 1.224 3.243 3.892v5.373h-2.817v-5.022c0-1.168-.407-1.964-1.427-1.964-.777 0-1.241.538-1.426 1.056-.074.167-.112.446-.112.704v5.226h-2.816v-6.17zM297.98 17.714v2.594H300v2.074h-2.02v3.28c0 1.094.26 1.594 1.111 1.594.353 0 .63-.037.834-.074l.02 2.13c-.371.149-1.038.24-1.835.24-.908 0-1.668-.314-2.113-.776-.519-.54-.779-1.41-.779-2.688v-3.706h-1.204v-2.074h1.204v-1.964l2.761-.63zM175.416 42.67c.76.39 1.927.779 3.131.779 1.298 0 1.983-.537 1.983-1.352 0-.78-.593-1.223-2.094-1.76-2.076-.723-3.427-1.872-3.427-3.687 0-2.131 1.778-3.762 4.724-3.762 1.409 0 2.446.297 3.188.63l-.631 2.279a5.934 5.934 0 0 0-2.612-.593c-1.223 0-1.816.556-1.816 1.204 0 .797.704 1.149 2.316 1.76 2.205.815 3.242 1.965 3.242 3.726 0 2.092-1.611 3.872-5.04 3.872-1.426 0-2.834-.37-3.538-.76l.574-2.335zM187.626 41.04c0 1.557.649 2.725 1.853 2.725 1.093 0 1.797-1.094 1.797-2.724 0-1.354-.518-2.725-1.797-2.725-1.352 0-1.853 1.39-1.853 2.725m6.56-.093c0 3.317-2.354 4.836-4.781 4.836-2.65 0-4.687-1.742-4.687-4.67 0-2.927 1.927-4.8 4.836-4.8 2.778 0 4.632 1.91 4.632 4.634M195.927 45.58h2.816V32.425h-2.816zM209.564 42.67c0 1.188.037 2.15.073 2.91h-2.446l-.129-1.278h-.056c-.351.556-1.204 1.482-2.835 1.482-1.834 0-3.186-1.15-3.186-3.946V36.52h2.834v4.873c0 1.315.428 2.112 1.409 2.112.778 0 1.222-.537 1.407-.981.075-.167.094-.39.094-.613V36.52h2.834v6.15zM214.974 33.925v2.595h2.02v2.074h-2.02v3.28c0 1.093.26 1.593 1.112 1.593.352 0 .629-.036.833-.073l.019 2.13c-.37.148-1.037.242-1.834.242-.908 0-1.668-.316-2.112-.779-.52-.538-.78-1.409-.78-2.688v-3.705h-1.203V36.52h1.204v-1.963l2.76-.63zM218.623 45.58h2.816v-9.061h-2.816v9.06zm2.909-11.581c0 .779-.594 1.409-1.519 1.409-.89 0-1.483-.63-1.464-1.41-.019-.814.574-1.426 1.482-1.426.907 0 1.483.612 1.501 1.427zM226.09 41.04c0 1.557.648 2.725 1.853 2.725 1.093 0 1.797-1.094 1.797-2.724 0-1.354-.52-2.725-1.797-2.725-1.352 0-1.853 1.39-1.853 2.725m6.56-.093c0 3.317-2.354 4.836-4.781 4.836-2.65 0-4.688-1.742-4.688-4.67 0-2.927 1.928-4.8 4.836-4.8 2.779 0 4.633 1.91 4.633 4.634M234.39 39.41c0-1.13-.036-2.094-.073-2.891h2.445l.13 1.242h.056c.37-.575 1.297-1.446 2.797-1.446 1.853 0 3.243 1.224 3.243 3.892v5.373h-2.816v-5.021c0-1.168-.408-1.964-1.427-1.964-.778 0-1.242.538-1.426 1.056-.074.167-.112.445-.112.704v5.225h-2.816v-6.17zM245.23 43.116c.52.314 1.594.686 2.428.686.852 0 1.204-.297 1.204-.761 0-.462-.279-.685-1.334-1.037-1.871-.63-2.595-1.65-2.576-2.724 0-1.685 1.446-2.965 3.688-2.965 1.056 0 2 .24 2.556.52l-.5 1.945c-.407-.223-1.186-.52-1.964-.52-.685 0-1.075.279-1.075.742 0 .426.351.649 1.464 1.038 1.722.593 2.445 1.464 2.463 2.798 0 1.685-1.334 2.927-3.927 2.927-1.187 0-2.242-.26-2.928-.63l.5-2.02zM164.808 3.417h.34c.397 0 .719-.132.719-.453 0-.283-.208-.473-.662-.473a1.7 1.7 0 0 0-.397.039v.887zm-.018 1.757h-.718V2.076a6.311 6.311 0 0 1 1.19-.095c.586 0 .849.095 1.076.228a.86.86 0 0 1 .302.68c0 .34-.265.603-.642.717v.039c.302.112.473.339.567.754.095.472.15.662.227.775h-.775c-.094-.113-.15-.398-.246-.756-.056-.34-.244-.491-.641-.491h-.34v1.247zm-1.91-1.624c0 1.378 1.023 2.473 2.419 2.473 1.36 0 2.36-1.095 2.36-2.455 0-1.38-1-2.493-2.378-2.493-1.378 0-2.4 1.114-2.4 2.475zm5.573 0c0 1.756-1.378 3.135-3.172 3.135-1.775 0-3.192-1.38-3.192-3.135 0-1.72 1.417-3.098 3.192-3.098 1.794 0 3.172 1.379 3.172 3.098z"
              mask="url(#d)"/>
    </g>
</svg>
